<svg xmlns="http://www.w3.org/2000/svg" xmlns:xlink="http://www.w3.org/1999/xlink" width="500" zoomAndPan="magnify" viewBox="0 0 375 374.999991" height="500" preserveAspectRatio="xMidYMid meet" version="1.0"><defs><g/><clipPath id="2e514d7bb5"><path d="M 8.824219 153.050781 L 364.164062 153.050781 L 364.164062 256.972656 L 8.824219 256.972656 Z M 8.824219 153.050781 " clip-rule="nonzero"/></clipPath><clipPath id="3589880bed"><path d="M 179 170 L 202 170 L 202 216 L 179 216 Z M 179 170 " clip-rule="nonzero"/></clipPath><clipPath id="842106fc36"><path d="M 168.871094 176.464844 L 199.097656 165.21875 L 213.742188 204.585938 L 183.515625 215.828125 Z M 168.871094 176.464844 " clip-rule="nonzero"/></clipPath><clipPath id="7aa10cd7eb"><path d="M 168.871094 176.464844 L 199.097656 165.21875 L 213.742188 204.585938 L 183.515625 215.828125 Z M 168.871094 176.464844 " clip-rule="nonzero"/></clipPath></defs><g clip-path="url(#2e514d7bb5)"><path stroke-linecap="butt" transform="matrix(0.75, 0, 0, 0.75, 8.825729, 153.052548)" fill="none" stroke-linejoin="miter" d="M -0.00201319 -0.00235507 L 473.784476 -0.00235507 L 473.784476 138.560154 L -0.00201319 138.560154 Z M -0.00201319 -0.00235507 " stroke="#ffffff" stroke-width="8" stroke-opacity="1" stroke-miterlimit="4"/></g><path stroke-linecap="butt" transform="matrix(0.540469, 0, 0, 0.540469, 136.885498, 159.625742)" fill="none" stroke-linejoin="miter" d="M 75.255211 78.569013 C 75.255211 79.682051 75.255211 80.91073 75.255211 82.255049 C 75.255211 83.584912 75.255211 84.712406 75.255211 85.659211 C 75.255211 86.353053 75.276894 87.393816 75.320259 88.7815 C 75.356397 90.147502 75.421444 91.629144 75.508174 93.226426 C 75.587677 94.823708 75.652725 96.175255 75.69609 97.288293 C 75.739455 98.401331 75.761138 98.95785 75.761138 98.95785 C 75.761138 99.651692 75.421444 99.998613 74.749285 99.998613 L 4.916973 99.998613 C 3.695522 99.998613 3.131776 99.398729 3.211278 98.206188 C 3.485924 91.730329 3.64493 85.25447 3.688295 78.756928 C 3.73166 72.266614 3.78948 65.754617 3.87621 59.220938 C 3.962941 52.853492 4.194221 46.449908 4.570052 39.995731 C 4.967566 33.5271 4.69292 27.109061 3.753342 20.741614 C 3.666612 20.221233 3.78948 19.765899 4.129174 19.390068 C 4.46164 19.007009 4.895291 18.819094 5.4229 18.819094 L 74.214448 18.819094 C 74.742057 18.819094 75.088978 19.072057 75.255211 19.577983 C 75.255211 19.664714 75.233529 20.047772 75.190164 20.741614 C 75.146798 21.435456 75.088978 22.129298 75.002248 22.82314 C 75.002248 23.242337 74.958883 24.232507 74.87938 25.786424 C 74.79265 27.340341 74.720375 28.959306 74.655327 30.636091 C 74.611962 32.298421 74.590279 33.55601 74.590279 34.423312 C 74.590279 35.283387 74.633644 36.345833 74.720375 37.603422 C 74.82156 38.839328 74.9372 39.952366 75.067296 40.942536 C 75.190164 41.932707 75.255211 42.424178 75.255211 42.424178 C 75.255211 43.11802 74.864925 43.464941 74.09158 43.464941 C 74.09158 43.464941 73.24596 43.443259 71.569175 43.399894 C 69.885163 43.356529 67.753044 43.334846 65.172819 43.334846 C 62.607049 43.334846 59.875046 43.334846 56.97681 43.334846 C 54.100256 43.334846 51.433301 43.378211 48.968716 43.464941 C 46.533041 43.551672 44.624976 43.67454 43.237292 43.840773 C 41.95802 44.014233 40.642611 44.397292 39.298292 45.011631 C 37.975656 45.618743 37.231221 46.702871 37.057761 48.256788 C 36.956576 49.196366 37.245676 49.998621 37.939518 50.649098 C 38.63336 51.277892 39.370568 51.762136 40.15114 52.101829 C 40.570336 52.181332 41.914655 52.27529 44.184097 52.383703 C 46.475221 52.470433 49.214452 52.506571 52.409016 52.506571 C 55.603581 52.506571 58.805373 52.484888 62.02162 52.44875 C 65.252322 52.405385 67.984325 52.383703 70.210401 52.383703 C 72.45816 52.383703 73.751887 52.383703 74.09158 52.383703 C 74.864925 52.383703 75.255211 52.716169 75.255211 53.388328 L 75.255211 64.106742 C 75.255211 65.053548 75.255211 65.870258 75.255211 66.5641 C 75.255211 67.257942 75.255211 67.995149 75.255211 68.768494 C 75.255211 69.462336 74.864925 69.809257 74.09158 69.809257 C 72.617166 69.809257 70.571777 69.787574 67.94096 69.744209 C 65.339052 69.686389 62.628731 69.606886 59.809998 69.527383 C 57.020175 69.440653 54.49777 69.375606 52.250011 69.339468 C 50.023934 69.296103 48.527837 69.27442 47.776175 69.27442 C 46.9161 69.36115 45.853654 69.397288 44.588838 69.397288 C 43.352932 69.397288 42.167618 69.577976 41.032898 69.939352 C 39.919859 70.271818 39.110377 70.958433 38.60445 71.984741 C 37.744375 73.625388 37.867243 74.976935 38.980282 76.046608 C 40.09332 77.123508 41.343681 77.831805 42.731365 78.193182 C 43.59144 78.359415 45.362183 78.446145 48.029138 78.446145 C 50.696094 78.446145 53.717198 78.381097 57.099678 78.258229 C 60.50384 78.128134 63.77068 78.005266 66.900197 77.875171 C 70.051396 77.73062 72.450933 77.61498 74.09158 77.52825 C 74.864925 77.52825 75.255211 77.875171 75.255211 78.569013 Z M 75.255211 78.569013 " stroke="#000000" stroke-width="9.681525" stroke-opacity="1" stroke-miterlimit="4"/><g fill="#ffffff" fill-opacity="1"><g transform="translate(136.885498, 213.672624)"><g><path d="M 40.671875 -11.578125 C 40.671875 -10.972656 40.671875 -10.3125 40.671875 -9.59375 C 40.671875 -8.875 40.671875 -8.257812 40.671875 -7.75 C 40.671875 -7.375 40.679688 -6.8125 40.703125 -6.0625 C 40.734375 -5.320312 40.769531 -4.519531 40.8125 -3.65625 C 40.851562 -2.800781 40.882812 -2.070312 40.90625 -1.46875 C 40.9375 -0.863281 40.953125 -0.5625 40.953125 -0.5625 C 40.953125 -0.1875 40.765625 0 40.390625 0 L 2.65625 0 C 2 0 1.695312 -0.328125 1.75 -0.984375 C 1.882812 -4.460938 1.960938 -7.957031 1.984375 -11.46875 C 2.003906 -14.988281 2.039062 -18.515625 2.09375 -22.046875 C 2.132812 -25.484375 2.257812 -28.945312 2.46875 -32.4375 C 2.6875 -35.925781 2.535156 -39.394531 2.015625 -42.84375 C 1.972656 -43.113281 2.046875 -43.351562 2.234375 -43.5625 C 2.421875 -43.769531 2.65625 -43.875 2.9375 -43.875 L 40.109375 -43.875 C 40.390625 -43.875 40.578125 -43.738281 40.671875 -43.46875 C 40.671875 -43.414062 40.660156 -43.203125 40.640625 -42.828125 C 40.617188 -42.460938 40.582031 -42.09375 40.53125 -41.71875 C 40.53125 -41.488281 40.503906 -40.953125 40.453125 -40.109375 C 40.410156 -39.273438 40.378906 -38.40625 40.359375 -37.5 C 40.335938 -36.59375 40.328125 -35.90625 40.328125 -35.4375 C 40.328125 -34.976562 40.347656 -34.410156 40.390625 -33.734375 C 40.441406 -33.054688 40.5 -32.445312 40.5625 -31.90625 C 40.632812 -31.375 40.671875 -31.109375 40.671875 -31.109375 C 40.671875 -30.742188 40.460938 -30.5625 40.046875 -30.5625 C 40.046875 -30.5625 39.59375 -30.570312 38.6875 -30.59375 C 37.78125 -30.613281 36.628906 -30.625 35.234375 -30.625 C 33.835938 -30.625 32.359375 -30.625 30.796875 -30.625 C 29.242188 -30.625 27.800781 -30.597656 26.46875 -30.546875 C 25.144531 -30.503906 24.113281 -30.4375 23.375 -30.34375 C 22.675781 -30.25 21.960938 -30.039062 21.234375 -29.71875 C 20.515625 -29.394531 20.109375 -28.8125 20.015625 -27.96875 C 19.972656 -27.457031 20.132812 -27.023438 20.5 -26.671875 C 20.875 -26.328125 21.273438 -26.066406 21.703125 -25.890625 C 21.929688 -25.835938 22.660156 -25.785156 23.890625 -25.734375 C 25.128906 -25.691406 26.609375 -25.671875 28.328125 -25.671875 C 30.046875 -25.671875 31.773438 -25.679688 33.515625 -25.703125 C 35.265625 -25.734375 36.742188 -25.75 37.953125 -25.75 C 39.160156 -25.75 39.859375 -25.75 40.046875 -25.75 C 40.460938 -25.75 40.671875 -25.5625 40.671875 -25.1875 L 40.671875 -19.390625 C 40.671875 -18.878906 40.671875 -18.4375 40.671875 -18.0625 C 40.671875 -17.695312 40.671875 -17.304688 40.671875 -16.890625 C 40.671875 -16.515625 40.460938 -16.328125 40.046875 -16.328125 C 39.253906 -16.328125 38.148438 -16.335938 36.734375 -16.359375 C 35.316406 -16.378906 33.847656 -16.410156 32.328125 -16.453125 C 30.816406 -16.503906 29.457031 -16.539062 28.25 -16.5625 C 27.039062 -16.59375 26.226562 -16.609375 25.8125 -16.609375 C 25.34375 -16.554688 24.769531 -16.53125 24.09375 -16.53125 C 23.425781 -16.53125 22.789062 -16.4375 22.1875 -16.25 C 21.582031 -16.0625 21.140625 -15.691406 20.859375 -15.140625 C 20.390625 -14.253906 20.457031 -13.519531 21.0625 -12.9375 C 21.664062 -12.351562 22.34375 -11.972656 23.09375 -11.796875 C 23.5625 -11.703125 24.515625 -11.65625 25.953125 -11.65625 C 27.390625 -11.65625 29.023438 -11.6875 30.859375 -11.75 C 32.703125 -11.820312 34.472656 -11.890625 36.171875 -11.953125 C 37.867188 -12.023438 39.160156 -12.085938 40.046875 -12.140625 C 40.460938 -12.140625 40.671875 -11.953125 40.671875 -11.578125 Z M 40.671875 -11.578125 "/></g></g></g><path stroke-linecap="butt" transform="matrix(0.540469, 0, 0, 0.540469, 306.700355, 161.424642)" fill="none" stroke-linejoin="miter" d="M 76.291614 63.098369 C 76.291614 65.158213 76.277158 67.666162 76.233793 70.629446 C 76.190428 73.59273 76.168746 76.693337 76.168746 79.924039 C 76.168746 83.161968 76.147063 86.197527 76.103698 89.030716 C 76.060333 91.871131 76.045878 94.256214 76.045878 96.185962 C 76.045878 98.122937 76.082015 99.264886 76.168746 99.619034 C 76.168746 99.871998 76.074788 100.002093 75.886872 100.002093 L 42.604136 100.002093 C 42.416221 100.002093 42.322263 99.915363 42.322263 99.74913 C 41.989797 98.715594 41.664559 97.689286 41.346548 96.662978 C 41.050219 95.60776 40.739436 94.566997 40.399742 93.540689 C 39.626398 91.394115 38.990376 88.886165 38.506132 86.009612 C 38.050798 83.111376 37.342501 80.798569 36.395696 79.078419 C 35.976499 78.131613 35.354933 77.900333 34.538223 78.384577 C 33.721513 78.847138 33.309544 79.642165 33.309544 80.776886 C 33.143311 83.530572 33.121628 86.667316 33.244496 90.201574 C 33.374592 93.728604 33.475777 96.872576 33.562507 99.619034 C 33.562507 99.871998 33.475777 100.002093 33.309544 100.002093 L 3.626114 99.871998 C 3.438198 99.871998 3.337013 99.792495 3.337013 99.619034 C 3.337013 92.478243 3.423743 85.380817 3.589976 78.319529 C 3.785119 71.258241 3.879077 64.160815 3.879077 57.012796 C 3.879077 54.598804 3.857395 51.765615 3.814029 48.506003 C 3.770664 45.231936 3.748982 41.885594 3.748982 38.488659 C 3.748982 35.084496 3.727299 31.897159 3.683934 28.933876 C 3.647796 25.977819 3.604431 23.592737 3.561066 21.785857 C 3.517701 19.978977 3.496018 19.075536 3.496018 19.075536 C 3.496018 18.902076 3.582749 18.822573 3.748982 18.822573 L 36.142732 18.822573 C 36.229463 18.822573 36.316193 18.902076 36.395696 19.075536 C 37.010035 21.04865 37.566554 23.433732 38.065253 26.223555 C 38.592862 29.020606 39.149381 31.817657 39.742038 34.60748 C 40.34915 37.404531 41.042992 39.753475 41.816337 41.668768 C 42.15603 42.781806 42.849872 43.114272 43.897863 42.673394 C 44.678435 42.427658 45.104859 41.654313 45.191589 40.375042 C 45.357822 38.568161 45.466235 36.370995 45.502373 33.79077 C 45.545738 31.203317 45.56742 28.579727 45.56742 25.912772 C 45.56742 23.245816 45.56742 21.005285 45.56742 19.198404 C 45.56742 18.945441 45.654151 18.822573 45.820383 18.822573 L 76.168746 18.822573 C 76.334979 18.822573 76.421709 18.945441 76.421709 19.198404 C 76.421709 19.285134 76.421709 19.364637 76.421709 19.451367 C 76.421709 26.765619 76.400026 34.050961 76.356661 41.321847 C 76.313296 48.592734 76.291614 55.849165 76.291614 63.098369 Z M 76.291614 63.098369 " stroke="#000000" stroke-width="9.681525" stroke-opacity="1" stroke-miterlimit="4"/><g fill="#ffffff" fill-opacity="1"><g transform="translate(306.700355, 215.471525)"><g><path d="M 41.234375 -19.953125 C 41.234375 -18.835938 41.21875 -17.476562 41.1875 -15.875 C 41.164062 -14.269531 41.15625 -12.59375 41.15625 -10.84375 C 41.15625 -9.101562 41.144531 -7.460938 41.125 -5.921875 C 41.101562 -4.390625 41.09375 -3.097656 41.09375 -2.046875 C 41.09375 -1.003906 41.113281 -0.390625 41.15625 -0.203125 C 41.15625 -0.0664062 41.109375 0 41.015625 0 L 23.015625 0 C 22.929688 0 22.890625 -0.046875 22.890625 -0.140625 C 22.703125 -0.703125 22.523438 -1.257812 22.359375 -1.8125 C 22.191406 -2.375 22.019531 -2.929688 21.84375 -3.484375 C 21.414062 -4.648438 21.070312 -6.007812 20.8125 -7.5625 C 20.5625 -9.125 20.179688 -10.367188 19.671875 -11.296875 C 19.441406 -11.804688 19.101562 -11.929688 18.65625 -11.671875 C 18.21875 -11.421875 18 -10.992188 18 -10.390625 C 17.90625 -8.898438 17.890625 -7.203125 17.953125 -5.296875 C 18.023438 -3.390625 18.085938 -1.691406 18.140625 -0.203125 C 18.140625 -0.0664062 18.09375 0 18 0 L 1.953125 -0.0625 C 1.859375 -0.0625 1.8125 -0.109375 1.8125 -0.203125 C 1.8125 -4.066406 1.859375 -7.90625 1.953125 -11.71875 C 2.046875 -15.53125 2.09375 -19.367188 2.09375 -23.234375 C 2.09375 -24.535156 2.078125 -26.066406 2.046875 -27.828125 C 2.023438 -29.597656 2.015625 -31.398438 2.015625 -33.234375 C 2.015625 -35.078125 2.003906 -36.800781 1.984375 -38.40625 C 1.960938 -40.007812 1.941406 -41.300781 1.921875 -42.28125 C 1.898438 -43.257812 1.890625 -43.75 1.890625 -43.75 C 1.890625 -43.832031 1.929688 -43.875 2.015625 -43.875 L 19.53125 -43.875 C 19.582031 -43.875 19.628906 -43.832031 19.671875 -43.75 C 19.992188 -42.675781 20.296875 -41.382812 20.578125 -39.875 C 20.859375 -38.363281 21.160156 -36.847656 21.484375 -35.328125 C 21.804688 -33.816406 22.179688 -32.550781 22.609375 -31.53125 C 22.796875 -30.925781 23.164062 -30.738281 23.71875 -30.96875 C 24.132812 -31.113281 24.367188 -31.535156 24.421875 -32.234375 C 24.515625 -33.210938 24.570312 -34.394531 24.59375 -35.78125 C 24.613281 -37.175781 24.625 -38.59375 24.625 -40.03125 C 24.625 -41.476562 24.625 -42.691406 24.625 -43.671875 C 24.625 -43.804688 24.671875 -43.875 24.765625 -43.875 L 41.15625 -43.875 C 41.25 -43.875 41.296875 -43.804688 41.296875 -43.671875 C 41.296875 -43.628906 41.296875 -43.582031 41.296875 -43.53125 C 41.296875 -39.582031 41.285156 -35.640625 41.265625 -31.703125 C 41.242188 -27.773438 41.234375 -23.859375 41.234375 -19.953125 Z M 41.234375 -19.953125 "/></g></g></g><path stroke-linecap="butt" transform="matrix(0.540469, 0, 0, 0.540469, 200.427311, 159.625742)" fill="none" stroke-linejoin="miter" d="M 76.298113 42.547046 C 76.377616 43.493852 76.399299 45.091134 76.355934 47.338893 C 76.312568 49.564969 76.218611 51.805501 76.07406 54.05326 C 75.951192 56.279337 75.756049 57.869392 75.510314 58.808969 C 75.08389 61.056728 74.375593 63.434583 73.36374 65.935305 C 72.373569 68.414345 70.76906 70.82111 68.542983 73.148372 C 66.396409 75.396131 64.510026 77.015096 62.869379 78.005266 C 61.228731 78.988209 59.855502 79.776009 58.742464 80.368665 C 57.35478 81.14201 55.388894 81.81417 52.852034 82.385144 C 50.307947 82.948891 47.850589 83.382542 45.472735 83.67887 C 43.12379 83.967971 41.468688 84.119749 40.52911 84.119749 C 38.548769 84.119749 37.283953 84.488353 36.712979 85.218332 C 36.163687 85.955539 35.802311 87.227583 35.607168 89.034464 C 35.440935 90.147502 35.361432 91.629144 35.361432 93.479389 C 35.361432 95.322407 35.361432 96.984737 35.361432 98.459151 C 35.361432 99.485459 34.971146 99.998613 34.190574 99.998613 L 4.630012 99.998613 C 3.769937 99.998613 3.343513 99.485459 3.343513 98.459151 C 3.343513 98.459151 3.357968 97.425616 3.401333 95.365772 C 3.466381 93.284246 3.538656 90.747386 3.625386 87.740737 C 3.704889 84.734088 3.769937 81.778032 3.813302 78.850886 C 3.856667 75.916512 3.878349 73.495293 3.878349 71.60891 C 3.957852 64.381388 3.93617 57.132184 3.813302 49.861298 C 3.690434 42.590411 3.625386 35.290615 3.625386 27.961908 C 3.538656 25.121492 3.495291 22.288304 3.495291 19.447888 C 3.495291 19.028692 3.748254 18.819094 4.254181 18.819094 L 54.080713 18.819094 C 55.63463 18.819094 57.49933 19.100967 59.689269 19.671941 C 61.893663 20.221233 64.459433 21.601689 67.379352 23.834993 C 69.352465 25.388911 70.935293 27.289749 72.135061 29.537508 C 73.356512 31.763584 74.274407 34.040254 74.910429 36.374743 C 75.560906 38.68755 76.023468 40.747393 76.298113 42.547046 Z M 43.774267 43.464941 C 43.774267 42.85783 43.716447 42.077257 43.615262 41.130452 C 43.528532 40.183647 43.224976 39.359709 42.704594 38.644185 C 42.198668 37.906978 41.34582 37.538374 40.146052 37.538374 C 38.953511 37.538374 38.071753 37.92866 37.500779 38.709232 C 36.937032 39.460895 36.590111 40.29206 36.460016 41.1955 C 36.337148 42.09894 36.2721 42.814465 36.2721 43.334846 C 36.18537 44.115418 36.12755 45.387462 36.084185 47.150977 C 36.040819 48.914493 35.997454 50.678008 35.954089 52.44875 C 35.917952 54.212266 35.939634 55.426489 36.019137 56.098649 C 36.019137 56.712988 36.084185 57.508015 36.207052 58.498186 C 36.337148 59.481129 36.647931 60.384569 37.153858 61.208506 C 37.681467 62.025216 38.592134 62.437185 39.893088 62.437185 C 41.699969 62.437185 42.776869 61.793936 43.109335 60.514664 C 43.449029 59.21371 43.665854 58.172947 43.774267 57.392375 C 43.774267 56.5323 43.79595 55.115706 43.832087 53.142593 C 43.875453 51.162252 43.897135 49.232503 43.897135 47.338893 C 43.897135 45.45251 43.85377 44.158783 43.774267 43.464941 Z M 43.774267 43.464941 " stroke="#000000" stroke-width="9.681525" stroke-opacity="1" stroke-miterlimit="4"/><g fill="#ffffff" fill-opacity="1"><g transform="translate(200.427311, 213.672624)"><g><path d="M 41.234375 -31.046875 C 41.273438 -30.535156 41.285156 -29.675781 41.265625 -28.46875 C 41.242188 -27.257812 41.195312 -26.046875 41.125 -24.828125 C 41.050781 -23.617188 40.945312 -22.757812 40.8125 -22.25 C 40.582031 -21.039062 40.195312 -19.757812 39.65625 -18.40625 C 39.125 -17.0625 38.253906 -15.765625 37.046875 -14.515625 C 35.878906 -13.304688 34.851562 -12.429688 33.96875 -11.890625 C 33.09375 -11.359375 32.351562 -10.929688 31.75 -10.609375 C 31 -10.179688 29.9375 -9.816406 28.5625 -9.515625 C 27.195312 -9.210938 25.875 -8.976562 24.59375 -8.8125 C 23.3125 -8.65625 22.414062 -8.578125 21.90625 -8.578125 C 20.832031 -8.578125 20.144531 -8.378906 19.84375 -7.984375 C 19.539062 -7.585938 19.34375 -6.90625 19.25 -5.9375 C 19.15625 -5.320312 19.109375 -4.515625 19.109375 -3.515625 C 19.109375 -2.515625 19.109375 -1.625 19.109375 -0.84375 C 19.109375 -0.28125 18.898438 0 18.484375 0 L 2.515625 0 C 2.046875 0 1.8125 -0.28125 1.8125 -0.84375 C 1.8125 -0.84375 1.820312 -1.398438 1.84375 -2.515625 C 1.875 -3.628906 1.910156 -5 1.953125 -6.625 C 1.992188 -8.25 2.023438 -9.851562 2.046875 -11.4375 C 2.078125 -13.019531 2.09375 -14.320312 2.09375 -15.34375 C 2.132812 -19.25 2.117188 -23.164062 2.046875 -27.09375 C 1.984375 -31.03125 1.953125 -34.972656 1.953125 -38.921875 C 1.910156 -40.460938 1.890625 -42 1.890625 -43.53125 C 1.890625 -43.757812 2.023438 -43.875 2.296875 -43.875 L 29.234375 -43.875 C 30.066406 -43.875 31.078125 -43.722656 32.265625 -43.421875 C 33.453125 -43.117188 34.835938 -42.363281 36.421875 -41.15625 C 37.484375 -40.320312 38.335938 -39.300781 38.984375 -38.09375 C 39.640625 -36.882812 40.140625 -35.648438 40.484375 -34.390625 C 40.835938 -33.140625 41.085938 -32.023438 41.234375 -31.046875 Z M 23.65625 -30.5625 C 23.65625 -30.882812 23.628906 -31.300781 23.578125 -31.8125 C 23.535156 -32.320312 23.375 -32.773438 23.09375 -33.171875 C 22.8125 -33.566406 22.347656 -33.765625 21.703125 -33.765625 C 21.046875 -33.765625 20.566406 -33.554688 20.265625 -33.140625 C 19.960938 -32.722656 19.773438 -32.269531 19.703125 -31.78125 C 19.640625 -31.289062 19.609375 -30.90625 19.609375 -30.625 C 19.554688 -30.207031 19.519531 -29.519531 19.5 -28.5625 C 19.476562 -27.613281 19.453125 -26.660156 19.421875 -25.703125 C 19.398438 -24.753906 19.414062 -24.09375 19.46875 -23.71875 C 19.46875 -23.394531 19.5 -22.960938 19.5625 -22.421875 C 19.632812 -21.890625 19.8125 -21.398438 20.09375 -20.953125 C 20.375 -20.515625 20.863281 -20.296875 21.5625 -20.296875 C 22.53125 -20.296875 23.109375 -20.644531 23.296875 -21.34375 C 23.484375 -22.039062 23.601562 -22.597656 23.65625 -23.015625 C 23.65625 -23.484375 23.664062 -24.25 23.6875 -25.3125 C 23.707031 -26.382812 23.71875 -27.429688 23.71875 -28.453125 C 23.71875 -29.484375 23.695312 -30.1875 23.65625 -30.5625 Z M 23.65625 -30.5625 "/></g></g></g><g clip-path="url(#3589880bed)"><g clip-path="url(#842106fc36)"><g clip-path="url(#7aa10cd7eb)"><path fill="#ffde59" d="M 185.507812 170.277344 L 179.179688 193.777344 L 186.621094 193.523438 L 183.515625 215.828125 L 198.945312 186.425781 L 191.917969 186.589844 L 201.121094 170.078125 Z M 185.507812 170.277344 " fill-opacity="1" fill-rule="nonzero"/></g></g></g><path stroke-linecap="butt" transform="matrix(0.540469, 0, 0, 0.540469, 94.343698, 159.625742)" fill="none" stroke-linejoin="miter" d="M 82.220379 61.020591 C 82.220379 62.487778 82.242061 64.706627 82.285426 67.66991 C 82.321564 70.625967 82.386612 73.914489 82.473342 77.52825 C 82.552845 81.14201 82.661257 84.611221 82.784125 87.928653 C 82.935903 91.253313 83.029861 93.992543 83.073226 96.153572 C 83.109364 98.300146 83.131046 99.369819 83.131046 99.369819 C 83.131046 99.789015 83.008178 99.998613 82.755215 99.998613 L 55.904973 99.998613 C 55.550825 99.998613 55.370137 99.789015 55.370137 99.369819 C 55.456867 95.734376 55.435184 92.185663 55.305089 88.716453 C 55.182221 85.232787 55.117174 81.503386 55.117174 77.52825 C 55.117174 76.668175 54.74857 76.089973 54.011363 75.800872 C 53.281383 75.504544 52.826049 75.786417 52.659816 76.646492 C 51.879244 81.040825 51.228767 85.001507 50.708385 88.528537 C 50.202459 92.041112 49.602575 95.691011 48.908733 99.492687 C 48.822002 99.83238 48.655769 99.998613 48.402806 99.998613 L 36.275025 99.998613 C 36.022062 99.998613 35.891967 99.83238 35.891967 99.492687 C 35.118622 95.965657 34.591013 92.308531 34.316367 88.528537 C 34.063404 84.726861 33.55025 81.019142 32.776905 77.405382 C 32.523942 76.205613 32.025243 75.584046 31.295263 75.547909 C 30.558056 75.504544 30.189452 76.082745 30.189452 77.275286 C 30.297865 80.469851 30.189452 84.141432 29.871441 88.275574 C 29.582341 92.395261 29.430563 96.095752 29.430563 99.369819 C 29.430563 99.789015 29.307695 99.998613 29.054731 99.998613 L 3.874047 99.998613 C 3.519899 99.998613 3.339211 99.789015 3.339211 99.369819 L 3.339211 98.582019 C 3.527126 94.274417 3.664449 89.36693 3.751179 83.866786 C 3.830682 78.359415 3.89573 72.772541 3.939095 67.098936 C 3.98246 61.403649 4.004142 56.069739 4.004142 51.089976 C 4.004142 46.088532 3.98246 41.889342 3.939095 38.485179 C 3.89573 35.081017 3.874047 32.999491 3.874047 32.247828 C 3.874047 30.166302 3.852365 28.099231 3.816227 26.039387 C 3.772862 23.979544 3.751179 21.869108 3.751179 19.700851 C 3.751179 19.621348 3.751179 19.534618 3.751179 19.447888 C 3.751179 19.028692 3.917412 18.819094 4.257106 18.819094 L 39.484045 18.819094 C 39.679188 18.819094 39.809283 18.985327 39.896014 19.32502 C 40.31521 22.852051 40.611538 26.429674 40.777771 30.036207 C 40.965687 33.649967 41.399338 37.05413 42.071497 40.248694 C 42.158228 40.754621 42.425646 41.101542 42.888207 41.289458 C 43.372451 41.455691 43.791648 41.491828 44.153024 41.383415 C 44.57222 41.217182 44.883003 41.072632 45.092601 40.942536 C 45.323882 40.819669 45.482888 40.154737 45.569618 38.954968 C 45.569618 38.261126 45.656348 36.707209 45.822581 34.293217 C 45.988814 31.879225 46.220095 29.270089 46.516423 26.480266 C 46.827207 23.683215 47.116307 21.298133 47.362043 19.32502 C 47.448773 18.985327 47.629461 18.819094 47.904107 18.819094 L 82.473342 18.819094 C 82.82749 18.819094 83.008178 19.028692 83.008178 19.447888 C 83.008178 26.342943 82.870856 33.252454 82.59621 40.183647 C 82.343246 47.100385 82.220379 54.046033 82.220379 61.020591 Z M 82.220379 61.020591 " stroke="#000000" stroke-width="9.681525" stroke-opacity="1" stroke-miterlimit="4"/><g fill="#ffffff" fill-opacity="1"><g transform="translate(94.343698, 213.672624)"><g><path d="M 44.4375 -21.0625 C 44.4375 -20.28125 44.445312 -19.082031 44.46875 -17.46875 C 44.5 -15.863281 44.535156 -14.082031 44.578125 -12.125 C 44.628906 -10.175781 44.6875 -8.304688 44.75 -6.515625 C 44.820312 -4.734375 44.867188 -3.257812 44.890625 -2.09375 C 44.910156 -0.925781 44.921875 -0.34375 44.921875 -0.34375 C 44.921875 -0.113281 44.851562 0 44.71875 0 L 30.203125 0 C 30.015625 0 29.921875 -0.113281 29.921875 -0.34375 C 29.972656 -2.300781 29.960938 -4.222656 29.890625 -6.109375 C 29.828125 -7.992188 29.796875 -10.003906 29.796875 -12.140625 C 29.796875 -12.609375 29.597656 -12.921875 29.203125 -13.078125 C 28.804688 -13.242188 28.5625 -13.09375 28.46875 -12.625 C 28.050781 -10.25 27.703125 -8.109375 27.421875 -6.203125 C 27.140625 -4.296875 26.8125 -2.320312 26.4375 -0.28125 C 26.394531 -0.09375 26.300781 0 26.15625 0 L 19.609375 0 C 19.460938 0 19.390625 -0.09375 19.390625 -0.28125 C 18.972656 -2.1875 18.691406 -4.160156 18.546875 -6.203125 C 18.410156 -8.253906 18.132812 -10.253906 17.71875 -12.203125 C 17.582031 -12.859375 17.316406 -13.195312 16.921875 -13.21875 C 16.523438 -13.238281 16.328125 -12.925781 16.328125 -12.28125 C 16.367188 -10.5625 16.304688 -8.582031 16.140625 -6.34375 C 15.984375 -4.113281 15.90625 -2.113281 15.90625 -0.34375 C 15.90625 -0.113281 15.835938 0 15.703125 0 L 2.09375 0 C 1.90625 0 1.8125 -0.113281 1.8125 -0.34375 L 1.8125 -0.765625 C 1.90625 -3.085938 1.972656 -5.738281 2.015625 -8.71875 C 2.066406 -11.695312 2.101562 -14.71875 2.125 -17.78125 C 2.144531 -20.851562 2.15625 -23.738281 2.15625 -26.4375 C 2.15625 -29.132812 2.144531 -31.398438 2.125 -33.234375 C 2.101562 -35.078125 2.09375 -36.207031 2.09375 -36.625 C 2.09375 -37.738281 2.078125 -38.851562 2.046875 -39.96875 C 2.023438 -41.09375 2.015625 -42.234375 2.015625 -43.390625 C 2.015625 -43.441406 2.015625 -43.488281 2.015625 -43.53125 C 2.015625 -43.757812 2.109375 -43.875 2.296875 -43.875 L 21.34375 -43.875 C 21.4375 -43.875 21.507812 -43.785156 21.5625 -43.609375 C 21.789062 -41.703125 21.953125 -39.769531 22.046875 -37.8125 C 22.140625 -35.851562 22.375 -34.015625 22.75 -32.296875 C 22.789062 -32.023438 22.9375 -31.84375 23.1875 -31.75 C 23.445312 -31.65625 23.671875 -31.628906 23.859375 -31.671875 C 24.085938 -31.765625 24.257812 -31.84375 24.375 -31.90625 C 24.5 -31.976562 24.582031 -32.34375 24.625 -33 C 24.625 -33.375 24.671875 -34.210938 24.765625 -35.515625 C 24.859375 -36.816406 24.984375 -38.222656 25.140625 -39.734375 C 25.304688 -41.242188 25.460938 -42.535156 25.609375 -43.609375 C 25.648438 -43.785156 25.742188 -43.875 25.890625 -43.875 L 44.578125 -43.875 C 44.765625 -43.875 44.859375 -43.757812 44.859375 -43.53125 C 44.859375 -39.8125 44.785156 -36.078125 44.640625 -32.328125 C 44.503906 -28.585938 44.4375 -24.832031 44.4375 -21.0625 Z M 44.4375 -21.0625 "/></g></g></g><path stroke-linecap="butt" transform="matrix(0.540469, 0, 0, 0.540469, 59.755899, 159.625742)" fill="none" stroke-linejoin="miter" d="M 77.966813 99.998613 L 35.895412 99.998613 C 35.534035 99.998613 35.360575 99.789015 35.360575 99.369819 C 35.440078 97.729172 35.613538 95.51755 35.859274 92.720499 C 36.13392 89.901766 36.415793 87.075805 36.712121 84.242617 C 37.030132 81.409429 37.268641 79.212262 37.434874 77.658345 C 37.521604 77.492112 37.687837 77.362017 37.9408 77.275286 C 38.215446 77.195784 38.439499 77.152418 38.605732 77.152418 C 38.771965 77.239149 39.285119 77.275286 40.145194 77.275286 C 41.012497 77.275286 41.894254 77.275286 42.797694 77.275286 C 43.701135 77.275286 44.279336 77.275286 44.5323 77.275286 C 44.5323 77.275286 44.893676 77.109053 45.630883 76.776587 C 46.36809 76.415211 46.736694 75.8081 46.736694 74.948024 C 46.649963 74.528828 46.447593 73.264012 46.136809 71.168031 C 45.840481 69.04314 45.49356 66.629147 45.096046 63.918827 C 44.720215 61.208506 44.373294 58.613826 44.055283 56.134786 C 43.758955 53.634064 43.571039 51.776591 43.491536 50.55514 C 43.404806 48.661529 43.144615 47.078702 42.703737 45.799431 C 42.277313 44.491249 41.641291 43.840773 40.781216 43.840773 C 39.581447 43.76127 38.743055 44.346699 38.258811 45.604288 C 37.79625 46.847421 37.521604 47.815909 37.434874 48.509751 C 37.189138 50.396134 36.755487 53.06309 36.148375 56.510617 C 35.534035 59.936463 34.840193 63.716456 34.066849 67.857826 C 33.286276 71.991968 32.556297 76.133338 31.862455 80.274708 C 31.190295 84.387167 30.612093 88.152706 30.127849 91.556869 C 29.665288 94.961031 29.390642 97.562939 29.31114 99.369819 C 29.31114 99.789015 29.181044 99.998613 28.928081 99.998613 L 2.836729 99.998613 C 2.497035 99.998613 2.374167 99.738423 2.460898 99.210814 C 2.5404 98.878348 2.605448 98.516972 2.648813 98.14114 C 2.692178 97.743627 2.749999 97.375023 2.836729 97.03533 C 3.002962 96.261985 3.342655 94.599655 3.841354 92.055568 C 4.368963 89.518708 4.96162 86.656609 5.612097 83.483727 C 6.262574 80.29639 6.876913 77.217466 7.46957 74.254182 C 8.076682 71.290899 8.604291 68.992547 9.04517 67.3519 C 9.211403 66.217179 9.529414 64.323568 9.991975 61.678295 C 10.476219 59.01134 10.989373 55.932416 11.531437 52.44875 C 12.102411 48.957858 12.68784 45.387462 13.30218 41.730336 C 13.909292 38.073211 14.444128 34.611228 14.90669 31.329933 C 15.390933 28.055866 15.795675 25.345545 16.135368 23.198972 C 16.467834 21.037943 16.641295 19.744216 16.641295 19.32502 C 16.720797 18.985327 16.901485 18.819094 17.176131 18.819094 L 64.162248 18.819094 C 64.328481 18.819094 64.458576 18.985327 64.538079 19.32502 C 64.711539 20.185095 65.022323 21.970293 65.484884 24.680613 C 65.969128 27.390934 66.482282 30.426493 67.031574 33.78729 C 67.59532 37.133633 68.144612 40.335425 68.664993 43.399894 C 69.192602 46.449908 69.626254 48.83499 69.95872 50.55514 C 70.573059 54.002668 71.129578 57.442968 71.628277 60.890495 C 72.155886 64.338023 72.66904 67.785551 73.174967 71.225851 C 73.362882 71.89801 73.608618 73.213419 73.897719 75.16485 C 74.194047 77.101826 74.569878 79.298992 75.03244 81.75635 C 75.516684 84.192024 75.972017 86.656609 76.391214 89.157331 C 76.832092 91.658054 77.236834 93.811855 77.619892 95.618736 C 78.017406 97.425616 78.255914 98.625384 78.342644 99.210814 C 78.508877 99.738423 78.38601 99.998613 77.966813 99.998613 Z M 77.966813 99.998613 " stroke="#000000" stroke-width="9.681525" stroke-opacity="1" stroke-miterlimit="4"/><g fill="#ffffff" fill-opacity="1"><g transform="translate(59.755899, 213.672624)"><g><path d="M 42.140625 0 L 19.390625 0 C 19.203125 0 19.109375 -0.113281 19.109375 -0.34375 C 19.160156 -1.226562 19.253906 -2.425781 19.390625 -3.9375 C 19.535156 -5.445312 19.6875 -6.96875 19.84375 -8.5 C 20.007812 -10.039062 20.140625 -11.226562 20.234375 -12.0625 C 20.273438 -12.15625 20.363281 -12.222656 20.5 -12.265625 C 20.644531 -12.316406 20.765625 -12.34375 20.859375 -12.34375 C 20.953125 -12.300781 21.226562 -12.28125 21.6875 -12.28125 C 22.15625 -12.28125 22.632812 -12.28125 23.125 -12.28125 C 23.613281 -12.28125 23.925781 -12.28125 24.0625 -12.28125 C 24.0625 -12.28125 24.257812 -12.375 24.65625 -12.5625 C 25.050781 -12.75 25.25 -13.070312 25.25 -13.53125 C 25.207031 -13.769531 25.101562 -14.457031 24.9375 -15.59375 C 24.78125 -16.726562 24.59375 -18.03125 24.375 -19.5 C 24.164062 -20.96875 23.976562 -22.375 23.8125 -23.71875 C 23.65625 -25.070312 23.554688 -26.070312 23.515625 -26.71875 C 23.460938 -27.738281 23.320312 -28.597656 23.09375 -29.296875 C 22.863281 -29.992188 22.515625 -30.34375 22.046875 -30.34375 C 21.390625 -30.394531 20.929688 -30.082031 20.671875 -29.40625 C 20.421875 -28.726562 20.273438 -28.207031 20.234375 -27.84375 C 20.085938 -26.8125 19.851562 -25.363281 19.53125 -23.5 C 19.207031 -21.644531 18.835938 -19.597656 18.421875 -17.359375 C 18.003906 -15.128906 17.609375 -12.898438 17.234375 -10.671875 C 16.859375 -8.441406 16.539062 -6.40625 16.28125 -4.5625 C 16.03125 -2.726562 15.882812 -1.320312 15.84375 -0.34375 C 15.84375 -0.113281 15.769531 0 15.625 0 L 1.53125 0 C 1.34375 0 1.273438 -0.140625 1.328125 -0.421875 C 1.367188 -0.609375 1.398438 -0.804688 1.421875 -1.015625 C 1.453125 -1.222656 1.488281 -1.421875 1.53125 -1.609375 C 1.625 -2.023438 1.8125 -2.914062 2.09375 -4.28125 C 2.375 -5.65625 2.6875 -7.203125 3.03125 -8.921875 C 3.382812 -10.648438 3.722656 -12.316406 4.046875 -13.921875 C 4.367188 -15.523438 4.648438 -16.769531 4.890625 -17.65625 C 4.972656 -18.257812 5.144531 -19.28125 5.40625 -20.71875 C 5.664062 -22.164062 5.945312 -23.828125 6.25 -25.703125 C 6.550781 -27.585938 6.863281 -29.519531 7.1875 -31.5 C 7.507812 -33.476562 7.796875 -35.347656 8.046875 -37.109375 C 8.304688 -38.878906 8.53125 -40.34375 8.71875 -41.5 C 8.90625 -42.664062 9 -43.367188 9 -43.609375 C 9.039062 -43.785156 9.132812 -43.875 9.28125 -43.875 L 34.671875 -43.875 C 34.765625 -43.875 34.832031 -43.785156 34.875 -43.609375 C 34.96875 -43.140625 35.144531 -42.171875 35.40625 -40.703125 C 35.664062 -39.242188 35.945312 -37.601562 36.25 -35.78125 C 36.550781 -33.96875 36.835938 -32.234375 37.109375 -30.578125 C 37.390625 -28.929688 37.625 -27.644531 37.8125 -26.71875 C 38.132812 -24.851562 38.4375 -22.988281 38.71875 -21.125 C 39 -19.269531 39.28125 -17.414062 39.5625 -15.5625 C 39.65625 -15.1875 39.78125 -14.472656 39.9375 -13.421875 C 40.101562 -12.378906 40.3125 -11.195312 40.5625 -9.875 C 40.820312 -8.550781 41.066406 -7.210938 41.296875 -5.859375 C 41.535156 -4.515625 41.757812 -3.351562 41.96875 -2.375 C 42.175781 -1.394531 42.300781 -0.742188 42.34375 -0.421875 C 42.4375 -0.140625 42.367188 0 42.140625 0 Z M 42.140625 0 "/></g></g></g><path stroke-linecap="butt" transform="matrix(0.540469, 0, 0, 0.540469, 21.345173, 159.625742)" fill="none" stroke-linejoin="miter" d="M 74.339651 79.486908 C 74.339651 80.346983 74.383016 81.806942 74.469746 83.866786 C 74.549249 85.926629 74.635979 88.116568 74.715482 90.451058 C 74.823895 92.763865 74.917853 94.758661 75.004583 96.435445 C 75.084086 98.119458 75.127451 98.95785 75.127451 98.95785 C 75.127451 99.651692 74.737165 99.998613 73.96382 99.998613 C 73.96382 99.998613 73.082062 99.998613 71.318547 99.998613 C 69.547804 99.998613 67.249452 99.998613 64.416264 99.998613 C 61.575848 99.998613 58.561972 99.998613 55.367407 99.998613 C 52.194525 99.998613 49.202332 99.998613 46.390826 99.998613 C 43.593775 99.998613 41.295423 99.998613 39.488543 99.998613 C 37.681663 99.998613 36.821587 99.998613 36.90109 99.998613 C 37.428699 99.998613 36.995048 99.998613 35.607364 99.998613 C 34.241362 99.998613 32.376662 99.875746 29.998807 99.622782 C 27.649863 99.348137 25.243098 98.914485 22.785741 98.329056 C 20.328384 97.721944 18.275768 96.775139 16.642348 95.495868 C 13.382736 93.074648 10.780828 90.675111 8.82217 88.275574 C 6.892422 85.861582 5.591468 83.613823 4.919308 81.532296 C 4.391699 80.086792 4.023096 78.453372 3.813497 76.646492 C 3.603899 74.839612 3.444894 73.162827 3.343709 71.60891 C 3.256978 70.054993 3.170248 68.884134 3.090745 68.110789 C 3.090745 68.110789 3.090745 68.067424 3.090745 67.980694 L 3.090745 52.759534 C 3.090745 50.873151 3.235296 48.957858 3.531624 47.028109 C 3.842408 45.069451 4.167646 43.580582 4.50734 42.547046 C 5.367415 39.880091 6.22749 37.560056 7.087565 35.586943 C 7.954867 33.61383 9.241366 31.460028 10.968744 29.125539 C 11.915549 27.759538 13.614016 26.277896 16.071374 24.680613 C 18.528731 23.083331 21.304099 21.710102 24.390251 20.553699 C 27.498085 19.397295 30.519189 18.819094 33.439107 18.819094 C 33.439107 18.819094 34.400368 18.819094 36.337344 18.819094 C 38.267092 18.819094 40.782269 18.819094 43.868421 18.819094 C 46.976255 18.819094 50.250322 18.819094 53.69785 18.819094 C 57.145378 18.819094 60.412217 18.819094 63.498369 18.819094 C 66.606203 18.819094 69.128608 18.819094 71.065584 18.819094 C 72.995332 18.819094 73.96382 18.819094 73.96382 18.819094 C 74.737165 18.819094 75.127451 19.202152 75.127451 19.953814 C 75.127451 19.953814 75.127451 21.037943 75.127451 23.198972 C 75.127451 25.345545 75.105768 28.034183 75.062403 31.272113 C 75.026265 34.481132 74.9829 37.769655 74.939535 41.130452 C 74.89617 44.491249 74.874487 47.382258 74.874487 49.79625 C 74.874487 50.576822 74.491429 50.909288 73.710856 50.808103 C 72.764051 50.808103 71.188452 50.786421 68.984058 50.743055 C 66.801346 50.69969 64.329534 50.64187 61.575848 50.55514 C 58.822162 50.46841 56.075704 50.410589 53.322019 50.367224 C 50.568333 50.323859 48.176024 50.302177 46.137863 50.302177 C 44.121384 50.302177 42.719245 50.302177 41.9459 50.302177 C 40.999095 50.388907 39.893284 50.446727 38.635695 50.490092 C 37.399789 50.533457 36.221703 50.945426 35.108665 51.718771 C 33.995627 52.499343 33.215054 54.002668 32.774176 56.228744 C 32.521212 57.782661 32.376662 59.640134 32.333297 61.808391 C 32.289932 63.947737 32.268249 65.573929 32.268249 66.686968 C 32.102016 69.27442 32.766948 71.341491 34.255817 72.895408 C 35.766369 74.449325 38.332139 75.229898 41.9459 75.229898 C 44.106929 75.229898 45.35729 74.882977 45.696984 74.189135 C 46.02945 73.495293 46.159545 72.078698 46.072815 69.939352 C 45.986085 68.717901 46.007767 66.911021 46.137863 64.518711 C 46.26073 62.097491 46.325778 60.196653 46.325778 58.808969 C 46.426963 58.556006 46.585969 58.201857 46.795567 57.739296 C 47.005165 57.255052 47.626732 57.016544 48.660267 57.016544 C 48.73977 57.016544 49.64321 57.016544 51.370588 57.016544 C 53.090738 57.016544 55.157809 57.016544 57.579029 57.016544 C 59.993021 57.016544 62.399786 57.038227 64.792095 57.081592 C 67.206087 57.117729 69.258703 57.139412 70.935488 57.139412 C 72.619501 57.139412 73.501258 57.096047 73.587989 57.016544 C 74.361333 57.016544 74.75162 57.40683 74.75162 58.180175 C 74.75162 59.04025 74.75162 59.922008 74.75162 60.825448 C 74.75162 61.728888 74.701027 62.617873 74.592614 63.477948 C 74.592614 65.704025 74.570932 67.590408 74.527566 69.151552 C 74.491429 70.705469 74.448064 72.259387 74.404699 73.813304 C 74.361333 75.345538 74.339651 77.239149 74.339651 79.486908 Z M 74.339651 79.486908 " stroke="#000000" stroke-width="9.681525" stroke-opacity="1" stroke-miterlimit="4"/><g fill="#ffffff" fill-opacity="1"><g transform="translate(21.345173, 213.672624)"><g><path d="M 40.1875 -11.09375 C 40.1875 -10.625 40.207031 -9.832031 40.25 -8.71875 C 40.300781 -7.601562 40.347656 -6.414062 40.390625 -5.15625 C 40.441406 -3.90625 40.488281 -2.828125 40.53125 -1.921875 C 40.582031 -1.015625 40.609375 -0.5625 40.609375 -0.5625 C 40.609375 -0.1875 40.394531 0 39.96875 0 C 39.96875 0 39.488281 0 38.53125 0 C 37.582031 0 36.34375 0 34.8125 0 C 33.28125 0 31.648438 0 29.921875 0 C 28.203125 0 26.585938 0 25.078125 0 C 23.566406 0 22.320312 0 21.34375 0 C 20.375 0 19.910156 0 19.953125 0 C 20.234375 0 20 0 19.25 0 C 18.507812 0 17.5 -0.0664062 16.21875 -0.203125 C 14.9375 -0.347656 13.632812 -0.582031 12.3125 -0.90625 C 10.988281 -1.226562 9.882812 -1.738281 9 -2.4375 C 7.226562 -3.738281 5.816406 -5.039062 4.765625 -6.34375 C 3.722656 -7.644531 3.019531 -8.851562 2.65625 -9.96875 C 2.375 -10.757812 2.175781 -11.644531 2.0625 -12.625 C 1.945312 -13.601562 1.863281 -14.507812 1.8125 -15.34375 C 1.769531 -16.1875 1.722656 -16.816406 1.671875 -17.234375 C 1.671875 -17.234375 1.671875 -17.253906 1.671875 -17.296875 L 1.671875 -25.53125 C 1.671875 -26.550781 1.75 -27.582031 1.90625 -28.625 C 2.070312 -29.675781 2.25 -30.484375 2.4375 -31.046875 C 2.90625 -32.484375 3.367188 -33.738281 3.828125 -34.8125 C 4.296875 -35.882812 5 -37.046875 5.9375 -38.296875 C 6.445312 -39.046875 7.363281 -39.847656 8.6875 -40.703125 C 10.007812 -41.566406 11.507812 -42.3125 13.1875 -42.9375 C 14.863281 -43.5625 16.488281 -43.875 18.0625 -43.875 C 18.0625 -43.875 18.582031 -43.875 19.625 -43.875 C 20.675781 -43.875 22.039062 -43.875 23.71875 -43.875 C 25.394531 -43.875 27.160156 -43.875 29.015625 -43.875 C 30.878906 -43.875 32.648438 -43.875 34.328125 -43.875 C 36.003906 -43.875 37.363281 -43.875 38.40625 -43.875 C 39.445312 -43.875 39.96875 -43.875 39.96875 -43.875 C 40.394531 -43.875 40.609375 -43.664062 40.609375 -43.25 C 40.609375 -43.25 40.609375 -42.664062 40.609375 -41.5 C 40.609375 -40.34375 40.59375 -38.890625 40.5625 -37.140625 C 40.539062 -35.398438 40.519531 -33.625 40.5 -31.8125 C 40.476562 -30 40.46875 -28.441406 40.46875 -27.140625 C 40.46875 -26.722656 40.257812 -26.535156 39.84375 -26.578125 C 39.320312 -26.578125 38.46875 -26.585938 37.28125 -26.609375 C 36.101562 -26.640625 34.769531 -26.675781 33.28125 -26.71875 C 31.789062 -26.769531 30.300781 -26.804688 28.8125 -26.828125 C 27.320312 -26.847656 26.03125 -26.859375 24.9375 -26.859375 C 23.84375 -26.859375 23.085938 -26.859375 22.671875 -26.859375 C 22.160156 -26.816406 21.566406 -26.78125 20.890625 -26.75 C 20.222656 -26.726562 19.582031 -26.507812 18.96875 -26.09375 C 18.363281 -25.675781 17.945312 -24.863281 17.71875 -23.65625 C 17.582031 -22.8125 17.5 -21.804688 17.46875 -20.640625 C 17.445312 -19.484375 17.4375 -18.601562 17.4375 -18 C 17.34375 -16.601562 17.703125 -15.484375 18.515625 -14.640625 C 19.335938 -13.804688 20.722656 -13.390625 22.671875 -13.390625 C 23.835938 -13.390625 24.507812 -13.578125 24.6875 -13.953125 C 24.875 -14.328125 24.945312 -15.09375 24.90625 -16.25 C 24.863281 -16.90625 24.875 -17.882812 24.9375 -19.1875 C 25.007812 -20.488281 25.046875 -21.507812 25.046875 -22.25 C 25.085938 -22.394531 25.164062 -22.59375 25.28125 -22.84375 C 25.40625 -23.101562 25.742188 -23.234375 26.296875 -23.234375 C 26.347656 -23.234375 26.835938 -23.234375 27.765625 -23.234375 C 28.691406 -23.234375 29.804688 -23.234375 31.109375 -23.234375 C 32.410156 -23.234375 33.710938 -23.21875 35.015625 -23.1875 C 36.316406 -23.164062 37.421875 -23.15625 38.328125 -23.15625 C 39.242188 -23.15625 39.722656 -23.179688 39.765625 -23.234375 C 40.179688 -23.234375 40.390625 -23.023438 40.390625 -22.609375 C 40.390625 -22.140625 40.390625 -21.660156 40.390625 -21.171875 C 40.390625 -20.679688 40.367188 -20.207031 40.328125 -19.75 C 40.328125 -18.539062 40.3125 -17.515625 40.28125 -16.671875 C 40.257812 -15.835938 40.238281 -15 40.21875 -14.15625 C 40.195312 -13.320312 40.1875 -12.300781 40.1875 -11.09375 Z M 40.1875 -11.09375 "/></g></g></g><path stroke-linecap="butt" transform="matrix(0.75, 0, 0, 0.75, 96.653912, 221.725502)" fill="none" stroke-linejoin="miter" d="M 42.310412 13.126415 C 41.695829 13.126415 41.148954 13.053498 40.669787 12.897248 C 40.19062 12.746206 39.789579 12.54829 39.466662 12.303498 C 39.148954 12.053498 38.904162 11.782664 38.732287 11.485789 L 39.701037 10.308706 L 39.852079 10.308706 C 40.117704 10.704539 40.456245 11.022248 40.867704 11.256623 C 41.279162 11.490998 41.758329 11.610789 42.310412 11.610789 C 42.779162 11.610789 43.133329 11.511831 43.372912 11.313914 C 43.612496 11.110789 43.732287 10.839956 43.732287 10.490998 C 43.732287 10.282664 43.695829 10.105581 43.617704 9.964956 C 43.539579 9.819123 43.414579 9.699331 43.232287 9.600373 C 43.055204 9.496206 42.81562 9.407664 42.513537 9.334748 L 41.367704 9.074331 C 40.570829 8.892039 39.977079 8.589956 39.586454 8.168081 C 39.195829 7.746206 39.00312 7.194122 39.00312 6.517039 C 39.00312 6.017039 39.12812 5.574331 39.37812 5.194122 C 39.62812 4.813914 39.992704 4.517039 40.47187 4.308706 C 40.951037 4.095164 41.529162 3.990997 42.195829 3.990997 C 42.87812 3.990997 43.466662 4.079539 43.956246 4.261831 C 44.440621 4.444122 44.852079 4.720164 45.190621 5.089956 L 44.320829 6.282664 L 44.169787 6.282664 C 43.919787 6.017039 43.633329 5.819122 43.305204 5.688914 C 42.982287 5.558706 42.612495 5.490997 42.195829 5.490997 C 41.711454 5.490997 41.34687 5.579539 41.09687 5.746206 C 40.84687 5.918081 40.72187 6.152456 40.72187 6.454539 C 40.72187 6.730581 40.805204 6.954539 40.982287 7.121206 C 41.15937 7.287872 41.466662 7.418081 41.898954 7.506623 L 43.06562 7.751414 C 43.924996 7.933706 44.549996 8.240998 44.940621 8.678498 C 45.331246 9.115998 45.523954 9.683706 45.523954 10.381623 C 45.523954 10.938914 45.404162 11.418081 45.164579 11.829539 C 44.924996 12.240998 44.565621 12.558706 44.086454 12.787873 C 43.602079 13.011831 43.013537 13.126415 42.310412 13.126415 Z M 55.07083 13.001415 L 53.315621 13.001415 L 53.315621 4.121206 L 55.07083 4.121206 Z M 65.154164 13.001415 L 63.544789 13.001415 L 63.544789 4.121206 L 65.841664 4.121206 L 68.091664 10.647248 L 68.216664 10.647248 L 70.451039 4.121206 L 72.695831 4.121206 L 72.695831 13.001415 L 71.029164 13.001415 L 71.029164 7.131622 L 70.878122 7.105581 L 68.826039 13.001415 L 67.362497 13.001415 L 65.310414 7.105581 L 65.154164 7.131622 Z M 84.596873 4.121206 C 85.23229 4.121206 85.779165 4.235789 86.23229 4.470164 C 86.680207 4.699331 87.023957 5.027456 87.253123 5.444122 C 87.48229 5.865997 87.602082 6.350372 87.602082 6.907664 C 87.602082 7.459748 87.48229 7.949331 87.253123 8.365998 C 87.023957 8.782664 86.680207 9.105581 86.23229 9.339956 C 85.779165 9.574331 85.23229 9.688914 84.596873 9.688914 L 82.924998 9.688914 L 82.924998 13.001415 L 81.164581 13.001415 L 81.164581 4.121206 Z M 84.367707 8.298289 C 85.341665 8.298289 85.831248 7.834748 85.831248 6.907664 C 85.831248 5.975372 85.341665 5.511831 84.367707 5.511831 L 82.924998 5.511831 L 82.924998 8.298289 Z M 97.195832 4.121206 L 97.195832 11.527456 L 101.185416 11.527456 L 101.185416 13.001415 L 95.440624 13.001415 L 95.440624 4.121206 Z M 110.55 13.001415 L 108.794791 13.001415 L 108.794791 4.121206 L 110.55 4.121206 Z M 124.654168 4.121206 L 124.654168 5.589956 L 120.779167 5.589956 L 120.779167 7.938914 L 124.294792 7.938914 L 124.294792 9.392039 L 120.779167 9.392039 L 120.779167 13.001415 L 119.023959 13.001415 L 119.023959 4.121206 Z M 134.11771 13.001415 L 132.362501 13.001415 L 132.362501 4.121206 L 134.11771 4.121206 Z M 146.289586 13.126415 C 145.471877 13.126415 144.747919 12.959748 144.128127 12.615998 C 143.503127 12.277456 143.013544 11.767039 142.664585 11.084748 C 142.310419 10.402456 142.133335 9.558706 142.133335 8.558706 C 142.133335 7.558706 142.310419 6.720164 142.664585 6.037872 C 143.013544 5.355581 143.503127 4.839956 144.128127 4.501414 C 144.747919 4.162872 145.471877 3.990997 146.289586 3.990997 C 147.143752 3.990997 147.867711 4.157664 148.466669 4.490997 C 149.065627 4.829539 149.492711 5.334747 149.747919 6.022247 L 148.461461 6.803497 L 148.310419 6.798289 C 148.122919 6.334747 147.862502 6.006622 147.539586 5.803497 C 147.211461 5.605581 146.794794 5.506622 146.289586 5.506622 C 145.550002 5.506622 144.977086 5.746206 144.565627 6.235789 C 144.14896 6.725372 143.945835 7.496206 143.945835 8.558706 C 143.945835 9.615998 144.14896 10.386831 144.565627 10.876414 C 144.977086 11.365998 145.550002 11.610789 146.289586 11.610789 C 147.445836 11.610789 148.148961 11.048289 148.409377 9.928498 L 148.560419 9.928498 L 149.857294 10.600373 C 149.612502 11.444123 149.195836 12.074331 148.607294 12.496206 C 148.023961 12.918081 147.247919 13.126415 146.289586 13.126415 Z M 164.826045 13.001415 L 162.982295 13.001415 L 162.31042 10.954539 L 158.909378 10.954539 L 158.242711 13.001415 L 156.440628 13.001415 L 159.508336 4.121206 L 161.758337 4.121206 Z M 160.52917 5.970164 L 159.383336 9.475373 L 161.826045 9.475373 L 160.680212 5.970164 Z M 183.122921 9.100373 L 183.122921 11.527456 L 187.362505 11.527456 L 187.362505 13.001415 L 181.367713 13.001415 L 181.367713 4.121206 L 187.263547 4.121206 L 187.263547 5.589956 L 183.122921 5.589956 L 183.122921 7.668081 L 186.742713 7.668081 L 186.742713 9.100373 Z M 196.919797 4.121206 L 196.919797 11.527456 L 200.909381 11.527456 L 200.909381 13.001415 L 195.164589 13.001415 L 195.164589 4.121206 Z M 196.919797 4.121206 " stroke="#222222" stroke-width="0.435596" stroke-opacity="1" stroke-miterlimit="4"/><path stroke-linecap="butt" transform="matrix(0.75, 0, 0, 0.75, 96.653912, 221.725502)" fill="none" stroke-linejoin="miter" d="M 84.206248 30.126416 C 83.45104 30.126416 82.82604 29.985791 82.32604 29.699332 C 81.831248 29.412874 81.466665 29.032666 81.237498 28.548291 L 82.227081 27.345165 L 82.383331 27.345165 C 82.54479 27.735791 82.773956 28.043082 83.070831 28.267041 C 83.367706 28.490999 83.711456 28.600374 84.10729 28.600374 C 84.549998 28.600374 84.878123 28.475374 85.091665 28.214957 C 85.305207 27.959749 85.414582 27.543082 85.414582 26.964957 L 85.414582 21.121207 L 87.159373 21.121207 L 87.159373 26.990999 C 87.159373 28.063916 86.91979 28.855582 86.430207 29.365999 C 85.940623 29.871207 85.20104 30.126416 84.206248 30.126416 Z M 99.128124 30.126416 C 97.904166 30.126416 96.997916 29.834749 96.404166 29.256624 C 95.815624 28.673291 95.518749 27.813916 95.518749 26.67329 L 95.518749 21.121207 L 97.237499 21.121207 L 97.237499 26.657665 C 97.237499 27.308707 97.393749 27.793082 97.706249 28.115999 C 98.018749 28.438916 98.492707 28.600374 99.128124 28.600374 C 100.388541 28.600374 101.018749 27.954541 101.018749 26.657665 L 101.018749 21.121207 L 102.737499 21.121207 L 102.737499 26.67329 C 102.737499 27.813916 102.440624 28.673291 101.846874 29.256624 C 101.258333 29.834749 100.352083 30.126416 99.128124 30.126416 Z M 112.904167 26.100374 L 112.904167 28.527457 L 117.14375 28.527457 L 117.14375 30.001416 L 111.148958 30.001416 L 111.148958 21.121207 L 117.044792 21.121207 L 117.044792 22.589957 L 112.904167 22.589957 L 112.904167 24.668082 L 116.523959 24.668082 L 116.523959 26.100374 Z M 128.102084 30.126416 C 127.362501 30.126416 126.721876 29.959749 126.180209 29.621207 C 125.638543 29.282666 125.221876 28.772249 124.925001 28.089957 C 124.633334 27.407665 124.487501 26.563915 124.487501 25.558707 C 124.487501 24.54829 124.664584 23.699332 125.013543 23.01704 C 125.367709 22.334748 125.857293 21.82954 126.482293 21.490998 C 127.107293 21.157665 127.836459 20.990998 128.659376 20.990998 C 129.508335 20.990998 130.237501 21.152457 130.83646 21.464957 C 131.435418 21.782665 131.857293 22.251415 132.096876 22.876415 L 130.815626 23.652457 L 130.664585 23.647249 C 130.482293 23.251415 130.227085 22.959749 129.893751 22.777457 C 129.565626 22.595165 129.154168 22.506623 128.659376 22.506623 C 127.893751 22.506623 127.310418 22.746207 126.904168 23.230582 C 126.497918 23.714957 126.294793 24.490999 126.294793 25.558707 C 126.294793 26.631624 126.487501 27.412874 126.862501 27.897249 C 127.242709 28.386832 127.805209 28.626416 128.544793 28.626416 C 129.185418 28.626416 129.654168 28.485791 129.96146 28.194124 C 130.263543 27.907666 130.414585 27.480582 130.414585 26.907665 L 130.414585 26.527457 L 128.315626 26.527457 L 128.315626 25.100374 L 132.159376 25.100374 L 132.159376 30.001416 L 130.482293 30.001416 L 130.482293 28.808707 L 130.357293 28.793082 C 130.175001 29.214957 129.893751 29.543082 129.52396 29.777457 C 129.154168 30.011832 128.680209 30.126416 128.102084 30.126416 Z M 144.050002 30.126416 C 143.237502 30.126416 142.518752 29.959749 141.89896 29.631624 C 141.279169 29.298291 140.789585 28.787874 140.435419 28.105582 C 140.08646 27.42329 139.909377 26.574332 139.909377 25.558707 C 139.909377 24.543082 140.08646 23.694124 140.435419 23.011832 C 140.789585 22.32954 141.279169 21.824332 141.89896 21.490998 C 142.518752 21.157665 143.237502 20.990998 144.050002 20.990998 C 144.867711 20.990998 145.581252 21.157665 146.201044 21.48579 C 146.820836 21.819123 147.305211 22.324332 147.654169 23.006624 C 148.008336 23.694124 148.180211 24.543082 148.180211 25.558707 C 148.180211 26.574332 148.008336 27.428499 147.654169 28.110791 C 147.305211 28.793082 146.820836 29.303499 146.201044 29.631624 C 145.581252 29.964957 144.867711 30.126416 144.050002 30.126416 Z M 144.050002 28.600374 C 144.805211 28.600374 145.378127 28.360791 145.779169 27.876416 C 146.175002 27.39204 146.372919 26.621207 146.372919 25.558707 C 146.372919 24.496207 146.175002 23.725374 145.779169 23.240999 C 145.378127 22.751415 144.805211 22.511832 144.050002 22.511832 C 143.294794 22.511832 142.716669 22.751415 142.315627 23.240999 C 141.919794 23.725374 141.716669 24.496207 141.716669 25.558707 C 141.716669 26.621207 141.919794 27.39204 142.315627 27.876416 C 142.716669 28.360791 143.294794 28.600374 144.050002 28.600374 Z M 156.758336 30.053499 C 156.544795 30.053499 156.352086 30.011832 156.190628 29.923291 C 156.023961 29.834749 155.898961 29.714957 155.815628 29.563916 C 155.727086 29.407666 155.68542 29.235791 155.68542 29.037874 C 155.68542 28.845166 155.727086 28.673291 155.815628 28.517041 C 155.898961 28.365999 156.023961 28.240999 156.190628 28.152457 C 156.352086 28.063916 156.544795 28.022249 156.758336 28.022249 C 156.977086 28.022249 157.169795 28.063916 157.331253 28.152457 C 157.49792 28.235791 157.62292 28.355582 157.706253 28.511832 C 157.794795 28.668082 157.84167 28.839957 157.84167 29.032666 C 157.84167 29.329541 157.742711 29.574332 157.544795 29.767041 C 157.346878 29.959749 157.086461 30.053499 156.758336 30.053499 Z M 156.758336 30.053499 " stroke="#222222" stroke-width="0.435596" stroke-opacity="1" stroke-miterlimit="4"/><g fill="#ffffff" fill-opacity="1"><g transform="translate(125.43516, 231.475502)"><g><path d="M 2.953125 0.09375 C 2.492188 0.09375 2.082031 0.0351562 1.71875 -0.078125 C 1.351562 -0.191406 1.050781 -0.335938 0.8125 -0.515625 C 0.570312 -0.703125 0.390625 -0.910156 0.265625 -1.140625 L 1 -2.015625 L 1.109375 -2.015625 C 1.304688 -1.722656 1.554688 -1.488281 1.859375 -1.3125 C 2.171875 -1.132812 2.535156 -1.046875 2.953125 -1.046875 C 3.304688 -1.046875 3.570312 -1.117188 3.75 -1.265625 C 3.925781 -1.410156 4.015625 -1.613281 4.015625 -1.875 C 4.015625 -2.039062 3.984375 -2.175781 3.921875 -2.28125 C 3.867188 -2.382812 3.773438 -2.472656 3.640625 -2.546875 C 3.503906 -2.628906 3.328125 -2.695312 3.109375 -2.75 L 2.25 -2.9375 C 1.644531 -3.070312 1.195312 -3.296875 0.90625 -3.609375 C 0.613281 -3.929688 0.46875 -4.347656 0.46875 -4.859375 C 0.46875 -5.234375 0.5625 -5.5625 0.75 -5.84375 C 0.9375 -6.132812 1.207031 -6.359375 1.5625 -6.515625 C 1.925781 -6.671875 2.359375 -6.75 2.859375 -6.75 C 3.378906 -6.75 3.820312 -6.679688 4.1875 -6.546875 C 4.550781 -6.410156 4.859375 -6.207031 5.109375 -5.9375 L 4.453125 -5.03125 L 4.34375 -5.03125 C 4.15625 -5.226562 3.9375 -5.375 3.6875 -5.46875 C 3.445312 -5.570312 3.171875 -5.625 2.859375 -5.625 C 2.503906 -5.625 2.234375 -5.5625 2.046875 -5.4375 C 1.859375 -5.3125 1.765625 -5.132812 1.765625 -4.90625 C 1.765625 -4.695312 1.828125 -4.53125 1.953125 -4.40625 C 2.085938 -4.28125 2.316406 -4.1875 2.640625 -4.125 L 3.515625 -3.9375 C 4.160156 -3.800781 4.628906 -3.566406 4.921875 -3.234375 C 5.210938 -2.910156 5.359375 -2.488281 5.359375 -1.96875 C 5.359375 -1.550781 5.269531 -1.1875 5.09375 -0.875 C 4.914062 -0.570312 4.644531 -0.332031 4.28125 -0.15625 C 3.914062 0.0078125 3.472656 0.09375 2.953125 0.09375 Z M 2.953125 0.09375 "/></g></g></g><g fill="#ffffff" fill-opacity="1"><g transform="translate(135.776352, 231.475502)"><g><path d="M 2.1875 0 L 0.859375 0 L 0.859375 -6.65625 L 2.1875 -6.65625 Z M 2.1875 0 "/></g></g></g><g fill="#ffffff" fill-opacity="1"><g transform="translate(143.448462, 231.475502)"><g><path d="M 2.078125 0 L 0.859375 0 L 0.859375 -6.65625 L 2.59375 -6.65625 L 4.265625 -1.765625 L 4.375 -1.765625 L 6.046875 -6.65625 L 7.71875 -6.65625 L 7.71875 0 L 6.484375 0 L 6.484375 -4.40625 L 6.359375 -4.421875 L 4.828125 0 L 3.71875 0 L 2.1875 -4.421875 L 2.078125 -4.40625 Z M 2.078125 0 "/></g></g></g><g fill="#ffffff" fill-opacity="1"><g transform="translate(156.663701, 231.475502)"><g><path d="M 3.4375 -6.65625 C 3.914062 -6.65625 4.320312 -6.566406 4.65625 -6.390625 C 5 -6.222656 5.253906 -5.976562 5.421875 -5.65625 C 5.597656 -5.34375 5.6875 -4.976562 5.6875 -4.5625 C 5.6875 -4.144531 5.597656 -3.78125 5.421875 -3.46875 C 5.253906 -3.15625 5 -2.910156 4.65625 -2.734375 C 4.320312 -2.566406 3.914062 -2.484375 3.4375 -2.484375 L 2.1875 -2.484375 L 2.1875 0 L 0.859375 0 L 0.859375 -6.65625 Z M 3.265625 -3.53125 C 3.992188 -3.53125 4.359375 -3.875 4.359375 -4.5625 C 4.359375 -5.257812 3.992188 -5.609375 3.265625 -5.609375 L 2.1875 -5.609375 L 2.1875 -3.53125 Z M 3.265625 -3.53125 "/></g></g></g><g fill="#ffffff" fill-opacity="1"><g transform="translate(167.369273, 231.475502)"><g><path d="M 2.1875 -6.65625 L 2.1875 -1.109375 L 5.171875 -1.109375 L 5.171875 0 L 0.859375 0 L 0.859375 -6.65625 Z M 2.1875 -6.65625 "/></g></g></g><g fill="#ffffff" fill-opacity="1"><g transform="translate(177.382521, 231.475502)"><g><path d="M 2.1875 0 L 0.859375 0 L 0.859375 -6.65625 L 2.1875 -6.65625 Z M 2.1875 0 "/></g></g></g><g fill="#ffffff" fill-opacity="1"><g transform="translate(185.054628, 231.475502)"><g><path d="M 5.09375 -6.65625 L 5.09375 -5.5625 L 2.1875 -5.5625 L 2.1875 -3.796875 L 4.8125 -3.796875 L 4.8125 -2.703125 L 2.1875 -2.703125 L 2.1875 0 L 0.859375 0 L 0.859375 -6.65625 Z M 5.09375 -6.65625 "/></g></g></g><g fill="#ffffff" fill-opacity="1"><g transform="translate(195.058766, 231.475502)"><g><path d="M 2.1875 0 L 0.859375 0 L 0.859375 -6.65625 L 2.1875 -6.65625 Z M 2.1875 0 "/></g></g></g><g fill="#ffffff" fill-opacity="1"><g transform="translate(202.730874, 231.475502)"><g><path d="M 3.640625 0.09375 C 3.023438 0.09375 2.484375 -0.03125 2.015625 -0.28125 C 1.546875 -0.539062 1.179688 -0.925781 0.921875 -1.4375 C 0.660156 -1.945312 0.53125 -2.578125 0.53125 -3.328125 C 0.53125 -4.078125 0.660156 -4.707031 0.921875 -5.21875 C 1.179688 -5.726562 1.546875 -6.109375 2.015625 -6.359375 C 2.484375 -6.617188 3.023438 -6.75 3.640625 -6.75 C 4.273438 -6.75 4.816406 -6.625 5.265625 -6.375 C 5.710938 -6.125 6.035156 -5.742188 6.234375 -5.234375 L 5.265625 -4.640625 L 5.15625 -4.65625 C 5.007812 -5 4.8125 -5.242188 4.5625 -5.390625 C 4.320312 -5.546875 4.015625 -5.625 3.640625 -5.625 C 3.085938 -5.625 2.65625 -5.4375 2.34375 -5.0625 C 2.03125 -4.695312 1.875 -4.117188 1.875 -3.328125 C 1.875 -2.535156 2.03125 -1.957031 2.34375 -1.59375 C 2.65625 -1.226562 3.085938 -1.046875 3.640625 -1.046875 C 4.503906 -1.046875 5.035156 -1.46875 5.234375 -2.3125 L 5.34375 -2.3125 L 6.3125 -1.796875 C 6.132812 -1.171875 5.820312 -0.695312 5.375 -0.375 C 4.9375 -0.0625 4.359375 0.09375 3.640625 0.09375 Z M 3.640625 0.09375 "/></g></g></g><g fill="#ffffff" fill-opacity="1"><g transform="translate(213.882808, 231.475502)"><g><path d="M 6.390625 0 L 5 0 L 4.5 -1.53125 L 1.953125 -1.53125 L 1.453125 0 L 0.09375 0 L 2.40625 -6.65625 L 4.09375 -6.65625 Z M 3.171875 -5.265625 L 2.3125 -2.640625 L 4.140625 -2.640625 L 3.28125 -5.265625 Z M 3.171875 -5.265625 "/></g></g></g><g fill="#ffffff" fill-opacity="1"><g transform="translate(224.99375, 231.475502)"><g/></g></g><g fill="#ffffff" fill-opacity="1"><g transform="translate(231.81412, 231.475502)"><g><path d="M 2.1875 -2.921875 L 2.1875 -1.109375 L 5.359375 -1.109375 L 5.359375 0 L 0.859375 0 L 0.859375 -6.65625 L 5.28125 -6.65625 L 5.28125 -5.5625 L 2.1875 -5.5625 L 2.1875 -4 L 4.890625 -4 L 4.890625 -2.921875 Z M 2.1875 -2.921875 "/></g></g></g><g fill="#ffffff" fill-opacity="1"><g transform="translate(242.159864, 231.475502)"><g><path d="M 2.1875 -6.65625 L 2.1875 -1.109375 L 5.171875 -1.109375 L 5.171875 0 L 0.859375 0 L 0.859375 -6.65625 Z M 2.1875 -6.65625 "/></g></g></g><g fill="#ffffff" fill-opacity="1"><g transform="translate(157.47422, 244.225501)"><g><path d="M 2.328125 0.09375 C 1.765625 0.09375 1.296875 -0.0078125 0.921875 -0.21875 C 0.546875 -0.4375 0.273438 -0.726562 0.109375 -1.09375 L 0.859375 -1.984375 L 0.96875 -1.984375 C 1.082031 -1.691406 1.25 -1.460938 1.46875 -1.296875 C 1.695312 -1.128906 1.960938 -1.046875 2.265625 -1.046875 C 2.585938 -1.046875 2.828125 -1.140625 2.984375 -1.328125 C 3.148438 -1.523438 3.234375 -1.84375 3.234375 -2.28125 L 3.234375 -6.65625 L 4.546875 -6.65625 L 4.546875 -2.25 C 4.546875 -1.445312 4.363281 -0.851562 4 -0.46875 C 3.632812 -0.09375 3.078125 0.09375 2.328125 0.09375 Z M 2.328125 0.09375 "/></g></g></g><g fill="#ffffff" fill-opacity="1"><g transform="translate(167.469252, 244.225501)"><g><path d="M 3.53125 0.09375 C 2.613281 0.09375 1.929688 -0.125 1.484375 -0.5625 C 1.046875 -1 0.828125 -1.644531 0.828125 -2.5 L 0.828125 -6.65625 L 2.109375 -6.65625 L 2.109375 -2.5 C 2.109375 -2.019531 2.222656 -1.65625 2.453125 -1.40625 C 2.691406 -1.164062 3.050781 -1.046875 3.53125 -1.046875 C 4.476562 -1.046875 4.953125 -1.53125 4.953125 -2.5 L 4.953125 -6.65625 L 6.234375 -6.65625 L 6.234375 -2.5 C 6.234375 -1.644531 6.007812 -1 5.5625 -0.5625 C 5.125 -0.125 4.445312 0.09375 3.53125 0.09375 Z M 3.53125 0.09375 "/></g></g></g><g fill="#ffffff" fill-opacity="1"><g transform="translate(179.14954, 244.225501)"><g><path d="M 2.1875 -2.921875 L 2.1875 -1.109375 L 5.359375 -1.109375 L 5.359375 0 L 0.859375 0 L 0.859375 -6.65625 L 5.28125 -6.65625 L 5.28125 -5.5625 L 2.1875 -5.5625 L 2.1875 -4 L 4.890625 -4 L 4.890625 -2.921875 Z M 2.1875 -2.921875 "/></g></g></g><g fill="#ffffff" fill-opacity="1"><g transform="translate(189.495288, 244.225501)"><g><path d="M 3.234375 0.09375 C 2.679688 0.09375 2.203125 -0.03125 1.796875 -0.28125 C 1.390625 -0.539062 1.078125 -0.925781 0.859375 -1.4375 C 0.640625 -1.945312 0.53125 -2.578125 0.53125 -3.328125 C 0.53125 -4.085938 0.660156 -4.722656 0.921875 -5.234375 C 1.179688 -5.742188 1.546875 -6.125 2.015625 -6.375 C 2.484375 -6.625 3.03125 -6.75 3.65625 -6.75 C 4.289062 -6.75 4.832031 -6.628906 5.28125 -6.390625 C 5.726562 -6.160156 6.046875 -5.8125 6.234375 -5.34375 L 5.265625 -4.765625 L 5.15625 -4.765625 C 5.019531 -5.054688 4.828125 -5.269531 4.578125 -5.40625 C 4.328125 -5.550781 4.019531 -5.625 3.65625 -5.625 C 3.082031 -5.625 2.640625 -5.441406 2.328125 -5.078125 C 2.023438 -4.710938 1.875 -4.128906 1.875 -3.328125 C 1.875 -2.523438 2.015625 -1.941406 2.296875 -1.578125 C 2.585938 -1.210938 3.007812 -1.03125 3.5625 -1.03125 C 4.039062 -1.03125 4.394531 -1.132812 4.625 -1.34375 C 4.851562 -1.5625 4.96875 -1.882812 4.96875 -2.3125 L 4.96875 -2.609375 L 3.390625 -2.609375 L 3.390625 -3.671875 L 6.28125 -3.671875 L 6.28125 0 L 5.015625 0 L 5.015625 -0.890625 L 4.921875 -0.90625 C 4.785156 -0.582031 4.578125 -0.332031 4.296875 -0.15625 C 4.023438 0.0078125 3.671875 0.09375 3.234375 0.09375 Z M 3.234375 0.09375 "/></g></g></g><g fill="#ffffff" fill-opacity="1"><g transform="translate(201.061707, 244.225501)"><g><path d="M 3.625 0.09375 C 3.019531 0.09375 2.484375 -0.03125 2.015625 -0.28125 C 1.546875 -0.53125 1.179688 -0.910156 0.921875 -1.421875 C 0.660156 -1.929688 0.53125 -2.566406 0.53125 -3.328125 C 0.53125 -4.085938 0.660156 -4.722656 0.921875 -5.234375 C 1.179688 -5.742188 1.546875 -6.125 2.015625 -6.375 C 2.484375 -6.625 3.019531 -6.75 3.625 -6.75 C 4.238281 -6.75 4.773438 -6.625 5.234375 -6.375 C 5.703125 -6.132812 6.066406 -5.753906 6.328125 -5.234375 C 6.597656 -4.722656 6.734375 -4.085938 6.734375 -3.328125 C 6.734375 -2.566406 6.597656 -1.925781 6.328125 -1.40625 C 6.066406 -0.894531 5.703125 -0.515625 5.234375 -0.265625 C 4.773438 -0.0234375 4.238281 0.09375 3.625 0.09375 Z M 3.625 -1.046875 C 4.195312 -1.046875 4.628906 -1.226562 4.921875 -1.59375 C 5.222656 -1.957031 5.375 -2.535156 5.375 -3.328125 C 5.375 -4.117188 5.222656 -4.695312 4.921875 -5.0625 C 4.628906 -5.425781 4.195312 -5.609375 3.625 -5.609375 C 3.0625 -5.609375 2.628906 -5.425781 2.328125 -5.0625 C 2.023438 -4.695312 1.875 -4.117188 1.875 -3.328125 C 1.875 -2.535156 2.023438 -1.957031 2.328125 -1.59375 C 2.628906 -1.226562 3.0625 -1.046875 3.625 -1.046875 Z M 3.625 -1.046875 "/></g></g></g><g fill="#ffffff" fill-opacity="1"><g transform="translate(212.937847, 244.225501)"><g><path d="M 1.28125 0.046875 C 1.125 0.046875 0.984375 0.015625 0.859375 -0.046875 C 0.734375 -0.117188 0.640625 -0.210938 0.578125 -0.328125 C 0.515625 -0.441406 0.484375 -0.570312 0.484375 -0.71875 C 0.484375 -0.863281 0.515625 -0.992188 0.578125 -1.109375 C 0.640625 -1.222656 0.734375 -1.3125 0.859375 -1.375 C 0.984375 -1.445312 1.125 -1.484375 1.28125 -1.484375 C 1.445312 -1.484375 1.59375 -1.445312 1.71875 -1.375 C 1.84375 -1.3125 1.9375 -1.222656 2 -1.109375 C 2.0625 -0.992188 2.09375 -0.863281 2.09375 -0.71875 C 2.09375 -0.5 2.019531 -0.316406 1.875 -0.171875 C 1.726562 -0.0234375 1.53125 0.046875 1.28125 0.046875 Z M 1.28125 0.046875 "/></g></g></g><path stroke-linecap="butt" transform="matrix(0.552151, 0, 0, 0.552151, 233.896806, 159.806709)" fill="none" stroke-linejoin="miter" d="M 75.757772 86.950248 C 75.757772 87.565739 75.778996 88.52081 75.821443 89.822536 C 75.863891 91.103039 75.906339 92.454287 75.948786 93.883356 C 76.012458 95.291202 76.06198 96.515108 76.104427 97.540925 C 76.146875 98.573816 76.168099 99.083187 76.168099 99.083187 C 76.168099 99.698678 75.906339 100.002885 75.382818 100.002885 L 4.25479 100.002885 C 3.837388 100.002885 3.62515 99.698678 3.62515 99.083187 L 3.62515 97.038628 C 3.62515 96.953733 3.62515 96.911285 3.62515 96.911285 C 3.62515 96.741495 3.62515 96.56463 3.62515 96.373616 L 3.62515 56.104992 C 3.62515 52.758706 3.62515 49.412421 3.62515 46.051986 C 3.62515 42.684476 3.710045 39.324041 3.872761 35.963606 C 3.872761 32.956901 3.837388 29.999718 3.752493 27.077908 C 3.752493 25.776182 3.731269 24.523978 3.688822 23.32837 C 3.646374 22.132763 3.667598 20.880559 3.752493 19.578832 C 3.837388 19.069461 4.084999 18.82185 4.509475 18.82185 L 40.78095 18.82185 C 41.219575 18.82185 41.438887 19.111909 41.438887 19.706175 C 41.438887 22.458195 41.523783 25.18899 41.693573 27.898562 C 41.863363 30.608134 41.983632 33.338929 42.068527 36.090949 C 42.153422 37.894972 42.19587 39.684846 42.19587 41.446421 C 42.19587 43.215071 42.19587 44.955423 42.19587 46.681625 C 42.280765 47.898456 42.280765 49.652957 42.19587 51.945127 C 42.110974 54.208999 42.026079 56.430424 41.941184 58.588177 C 41.863363 60.731781 41.863363 62.139626 41.941184 62.811713 C 41.941184 63.950724 41.941184 65.110958 41.941184 66.31364 C 41.941184 67.509248 42.252466 68.499692 42.860882 69.270823 C 43.193388 69.801418 44.183832 70.148073 45.818065 70.310789 C 47.459372 70.48058 49.185574 70.565475 50.989597 70.565475 C 52.79362 70.565475 54.13072 70.565475 54.993821 70.565475 C 55.849848 70.565475 57.186947 70.544251 58.99097 70.501803 C 60.802068 70.459356 62.754657 70.395684 64.855813 70.310789 C 66.978193 70.232969 69.001529 70.148073 70.939969 70.063178 C 72.871335 69.978283 74.392374 69.935835 75.510161 69.935835 C 75.948786 70.020731 76.125651 70.275416 76.040756 70.692818 C 76.040756 70.862608 76.040756 71.513471 76.040756 72.645407 C 76.040756 73.756119 76.012458 74.923428 75.948786 76.147334 C 75.906339 77.342942 75.885115 78.234341 75.885115 78.821533 C 75.80022 80.208155 75.757772 81.594776 75.757772 82.981398 C 75.757772 84.346796 75.757772 85.669746 75.757772 86.950248 Z M 75.757772 86.950248 " stroke="#000000" stroke-width="9.681525" stroke-opacity="1" stroke-miterlimit="4"/><g fill="#ffffff" fill-opacity="1"><g transform="translate(233.896806, 215.021844)"><g><path d="M 41.828125 -7.203125 C 41.828125 -6.867188 41.835938 -6.34375 41.859375 -5.625 C 41.890625 -4.914062 41.914062 -4.164062 41.9375 -3.375 C 41.957031 -2.59375 41.976562 -1.914062 42 -1.34375 C 42.03125 -0.78125 42.046875 -0.5 42.046875 -0.5 C 42.046875 -0.164062 41.90625 0 41.625 0 L 2.359375 0 C 2.117188 0 2 -0.164062 2 -0.5 L 2 -1.640625 C 2 -1.679688 2 -1.703125 2 -1.703125 C 2 -1.804688 2 -1.90625 2 -2 L 2 -24.234375 C 2 -26.085938 2 -27.9375 2 -29.78125 C 2 -31.632812 2.046875 -33.488281 2.140625 -35.34375 C 2.140625 -37.007812 2.113281 -38.648438 2.0625 -40.265625 C 2.0625 -40.972656 2.050781 -41.660156 2.03125 -42.328125 C 2.007812 -42.992188 2.019531 -43.6875 2.0625 -44.40625 C 2.113281 -44.6875 2.257812 -44.828125 2.5 -44.828125 L 22.515625 -44.828125 C 22.753906 -44.828125 22.875 -44.660156 22.875 -44.328125 C 22.875 -42.804688 22.921875 -41.296875 23.015625 -39.796875 C 23.109375 -38.304688 23.179688 -36.800781 23.234375 -35.28125 C 23.273438 -34.28125 23.296875 -33.289062 23.296875 -32.3125 C 23.296875 -31.34375 23.296875 -30.382812 23.296875 -29.4375 C 23.347656 -28.769531 23.347656 -27.804688 23.296875 -26.546875 C 23.253906 -25.285156 23.207031 -24.0625 23.15625 -22.875 C 23.113281 -21.6875 23.113281 -20.90625 23.15625 -20.53125 C 23.15625 -19.90625 23.15625 -19.257812 23.15625 -18.59375 C 23.15625 -17.9375 23.320312 -17.394531 23.65625 -16.96875 C 23.84375 -16.675781 24.390625 -16.484375 25.296875 -16.390625 C 26.203125 -16.296875 27.148438 -16.25 28.140625 -16.25 C 29.140625 -16.25 29.878906 -16.25 30.359375 -16.25 C 30.835938 -16.25 31.570312 -16.257812 32.5625 -16.28125 C 33.5625 -16.300781 34.644531 -16.335938 35.8125 -16.390625 C 36.976562 -16.441406 38.09375 -16.488281 39.15625 -16.53125 C 40.226562 -16.582031 41.070312 -16.609375 41.6875 -16.609375 C 41.925781 -16.554688 42.019531 -16.410156 41.96875 -16.171875 C 41.96875 -16.078125 41.96875 -15.722656 41.96875 -15.109375 C 41.96875 -14.492188 41.957031 -13.851562 41.9375 -13.1875 C 41.914062 -12.519531 41.90625 -12.019531 41.90625 -11.6875 C 41.851562 -10.925781 41.828125 -10.164062 41.828125 -9.40625 C 41.828125 -8.644531 41.828125 -7.910156 41.828125 -7.203125 Z M 41.828125 -7.203125 "/></g></g></g><path stroke-linecap="butt" transform="matrix(0.540469, 0, 0, 0.540469, 263.96908, 161.424642)" fill="none" stroke-linejoin="miter" d="M 77.962662 100.002093 L 35.891261 100.002093 C 35.537112 100.002093 35.356424 99.792495 35.356424 99.373299 C 35.443154 97.732651 35.609387 95.513802 35.86235 92.716751 C 36.136996 89.905246 36.41887 87.079285 36.715198 84.246096 C 37.025981 81.405681 37.271717 79.208514 37.43795 77.654597 C 37.52468 77.488364 37.690913 77.365496 37.943877 77.278766 C 38.218522 77.192036 38.435348 77.155898 38.601581 77.155898 C 38.775042 77.235401 39.288196 77.278766 40.148271 77.278766 C 41.008346 77.278766 41.890103 77.278766 42.793543 77.278766 C 43.696984 77.278766 44.275185 77.278766 44.528149 77.278766 C 44.528149 77.278766 44.896752 77.112533 45.633959 76.772839 C 46.363939 76.418691 46.732543 75.811579 46.732543 74.944276 C 46.65304 74.52508 46.450669 73.267492 46.132658 71.164283 C 45.843557 69.046619 45.496636 66.625399 45.099123 63.915079 C 44.716064 61.204758 44.369143 58.610078 44.05836 56.131038 C 43.762031 53.630316 43.574116 51.772843 43.487385 50.558619 C 43.407883 48.665009 43.140464 47.074954 42.699586 45.795683 C 42.280389 44.494729 41.63714 43.844252 40.777065 43.844252 C 39.584524 43.757522 38.738904 44.350179 38.25466 45.607767 C 37.792099 46.843673 37.52468 47.812161 37.43795 48.506003 C 37.184987 50.399614 36.758563 53.066569 36.144224 56.514097 C 35.537112 59.932715 34.84327 63.719936 34.062698 67.854078 C 33.289353 71.995448 32.552146 76.136817 31.858304 80.27096 C 31.186144 84.390647 30.607942 88.148958 30.123698 91.553121 C 29.668365 94.957283 29.393719 97.566418 29.306989 99.373299 C 29.306989 99.792495 29.184121 100.002093 28.931157 100.002093 L 2.839805 100.002093 C 2.500112 100.002093 2.377244 99.734675 2.456747 99.214293 C 2.543477 98.8746 2.608525 98.520451 2.644662 98.137392 C 2.688027 97.739879 2.753075 97.371275 2.839805 97.038809 C 3.006038 96.258237 3.338504 94.603135 3.844431 92.059047 C 4.37204 89.51496 4.957469 86.660089 5.607946 83.487207 C 6.258423 80.292642 6.87999 77.213718 7.465419 74.250434 C 8.079758 71.294378 8.60014 68.988799 9.041019 67.355379 C 9.214479 66.220658 9.525263 64.327048 9.987824 61.681775 C 10.472068 59.014819 10.985222 55.935895 11.534514 52.445002 C 12.09826 48.961337 12.690917 45.383714 13.298029 41.733816 C 13.905141 38.07669 14.447205 34.60748 14.902539 31.333413 C 15.386782 28.052118 15.798751 25.341797 16.138445 23.202451 C 16.470911 21.034195 16.637144 19.747696 16.637144 19.3285 C 16.723874 18.988806 16.904562 18.822573 17.17198 18.822573 L 64.165324 18.822573 C 64.331557 18.822573 64.454425 18.988806 64.541155 19.3285 C 64.707388 20.188575 65.025399 21.973772 65.48796 24.684093 C 65.972204 27.394413 66.485358 30.429972 67.027423 33.79077 C 67.598397 37.129885 68.140461 40.331677 68.66807 43.403373 C 69.195679 46.44616 69.622103 48.831242 69.961796 50.558619 C 70.568908 53.99892 71.125427 57.446447 71.631354 60.893975 C 72.158963 64.334275 72.672117 67.781803 73.178043 71.22933 C 73.365959 71.90149 73.604467 73.216899 73.900795 75.16833 C 74.197124 77.098078 74.572955 79.295244 75.035516 81.752602 C 75.51976 84.188276 75.967866 86.660089 76.387063 89.160811 C 76.827941 91.661533 77.23991 93.815335 77.615741 95.622215 C 78.020483 97.429095 78.258991 98.621636 78.345721 99.214293 C 78.511954 99.734675 78.381859 100.002093 77.962662 100.002093 Z M 77.962662 100.002093 " stroke="#000000" stroke-width="9.681525" stroke-opacity="1" stroke-miterlimit="4"/><g fill="#ffffff" fill-opacity="1"><g transform="translate(263.96908, 215.471525)"><g><path d="M 42.140625 0 L 19.390625 0 C 19.203125 0 19.109375 -0.113281 19.109375 -0.34375 C 19.160156 -1.226562 19.253906 -2.425781 19.390625 -3.9375 C 19.535156 -5.445312 19.6875 -6.96875 19.84375 -8.5 C 20.007812 -10.039062 20.140625 -11.226562 20.234375 -12.0625 C 20.273438 -12.15625 20.363281 -12.222656 20.5 -12.265625 C 20.644531 -12.316406 20.765625 -12.34375 20.859375 -12.34375 C 20.953125 -12.300781 21.226562 -12.28125 21.6875 -12.28125 C 22.15625 -12.28125 22.632812 -12.28125 23.125 -12.28125 C 23.613281 -12.28125 23.925781 -12.28125 24.0625 -12.28125 C 24.0625 -12.28125 24.257812 -12.375 24.65625 -12.5625 C 25.050781 -12.75 25.25 -13.070312 25.25 -13.53125 C 25.207031 -13.769531 25.101562 -14.457031 24.9375 -15.59375 C 24.78125 -16.726562 24.59375 -18.03125 24.375 -19.5 C 24.164062 -20.96875 23.976562 -22.375 23.8125 -23.71875 C 23.65625 -25.070312 23.554688 -26.070312 23.515625 -26.71875 C 23.460938 -27.738281 23.320312 -28.597656 23.09375 -29.296875 C 22.863281 -29.992188 22.515625 -30.34375 22.046875 -30.34375 C 21.390625 -30.394531 20.929688 -30.082031 20.671875 -29.40625 C 20.421875 -28.726562 20.273438 -28.207031 20.234375 -27.84375 C 20.085938 -26.8125 19.851562 -25.363281 19.53125 -23.5 C 19.207031 -21.644531 18.835938 -19.597656 18.421875 -17.359375 C 18.003906 -15.128906 17.609375 -12.898438 17.234375 -10.671875 C 16.859375 -8.441406 16.539062 -6.40625 16.28125 -4.5625 C 16.03125 -2.726562 15.882812 -1.320312 15.84375 -0.34375 C 15.84375 -0.113281 15.769531 0 15.625 0 L 1.53125 0 C 1.34375 0 1.273438 -0.140625 1.328125 -0.421875 C 1.367188 -0.609375 1.398438 -0.804688 1.421875 -1.015625 C 1.453125 -1.222656 1.488281 -1.421875 1.53125 -1.609375 C 1.625 -2.023438 1.8125 -2.914062 2.09375 -4.28125 C 2.375 -5.65625 2.6875 -7.203125 3.03125 -8.921875 C 3.382812 -10.648438 3.722656 -12.316406 4.046875 -13.921875 C 4.367188 -15.523438 4.648438 -16.769531 4.890625 -17.65625 C 4.972656 -18.257812 5.144531 -19.28125 5.40625 -20.71875 C 5.664062 -22.164062 5.945312 -23.828125 6.25 -25.703125 C 6.550781 -27.585938 6.863281 -29.519531 7.1875 -31.5 C 7.507812 -33.476562 7.796875 -35.347656 8.046875 -37.109375 C 8.304688 -38.878906 8.53125 -40.34375 8.71875 -41.5 C 8.90625 -42.664062 9 -43.367188 9 -43.609375 C 9.039062 -43.785156 9.132812 -43.875 9.28125 -43.875 L 34.671875 -43.875 C 34.765625 -43.875 34.832031 -43.785156 34.875 -43.609375 C 34.96875 -43.140625 35.144531 -42.171875 35.40625 -40.703125 C 35.664062 -39.242188 35.945312 -37.601562 36.25 -35.78125 C 36.550781 -33.96875 36.835938 -32.234375 37.109375 -30.578125 C 37.390625 -28.929688 37.625 -27.644531 37.8125 -26.71875 C 38.132812 -24.851562 38.4375 -22.988281 38.71875 -21.125 C 39 -19.269531 39.28125 -17.414062 39.5625 -15.5625 C 39.65625 -15.1875 39.78125 -14.472656 39.9375 -13.421875 C 40.101562 -12.378906 40.3125 -11.195312 40.5625 -9.875 C 40.820312 -8.550781 41.066406 -7.210938 41.296875 -5.859375 C 41.535156 -4.515625 41.757812 -3.351562 41.96875 -2.375 C 42.175781 -1.394531 42.300781 -0.742188 42.34375 -0.421875 C 42.4375 -0.140625 42.367188 0 42.140625 0 Z M 42.140625 0 "/></g></g></g></svg>