<svg xmlns="http://www.w3.org/2000/svg" xmlns:xlink="http://www.w3.org/1999/xlink" width="500" zoomAndPan="magnify" viewBox="0 0 375 374.999991" height="500" preserveAspectRatio="xMidYMid meet" version="1.0"><defs><g/><clipPath id="361fc6eb09"><path d="M 173 160 L 210 160 L 210 235 L 173 235 Z M 173 160 " clip-rule="nonzero"/></clipPath><clipPath id="6846172529"><path d="M 156.425781 170.601562 L 206.335938 152.035156 L 230.132812 216.003906 L 180.222656 234.570312 Z M 156.425781 170.601562 " clip-rule="nonzero"/></clipPath><clipPath id="74c08fdda5"><path d="M 156.425781 170.601562 L 206.335938 152.035156 L 230.132812 216.003906 L 180.222656 234.570312 Z M 156.425781 170.601562 " clip-rule="nonzero"/></clipPath></defs><path stroke-linecap="butt" transform="matrix(0.540469, 0, 0, 0.540469, 131.635498, 159.625742)" fill="none" stroke-linejoin="miter" d="M 75.255211 78.569013 C 75.255211 79.682051 75.255211 80.91073 75.255211 82.255049 C 75.255211 83.584912 75.255211 84.712406 75.255211 85.659211 C 75.255211 86.353053 75.276893 87.393816 75.320258 88.7815 C 75.356396 90.147502 75.421444 91.629144 75.508174 93.226426 C 75.587677 94.823708 75.652724 96.175255 75.696089 97.288293 C 75.739454 98.401331 75.761137 98.95785 75.761137 98.95785 C 75.761137 99.651692 75.421444 99.998613 74.749284 99.998613 L 4.916973 99.998613 C 3.695522 99.998613 3.131775 99.398729 3.211278 98.206188 C 3.485924 91.730329 3.644929 85.25447 3.688294 78.756928 C 3.731659 72.266614 3.789479 65.754617 3.87621 59.220938 C 3.96294 52.853492 4.194221 46.449908 4.570052 39.995731 C 4.967565 33.5271 4.69292 27.109061 3.753342 20.741614 C 3.666612 20.221233 3.789479 19.765899 4.129173 19.390068 C 4.461639 19.007009 4.89529 18.819094 5.422899 18.819094 L 74.214447 18.819094 C 74.742057 18.819094 75.088978 19.072057 75.255211 19.577983 C 75.255211 19.664714 75.233528 20.047772 75.190163 20.741614 C 75.146798 21.435456 75.088978 22.129298 75.002247 22.82314 C 75.002247 23.242337 74.958882 24.232507 74.879379 25.786424 C 74.792649 27.340341 74.720374 28.959306 74.655326 30.636091 C 74.611961 32.298421 74.590279 33.55601 74.590279 34.423312 C 74.590279 35.283387 74.633644 36.345833 74.720374 37.603422 C 74.821559 38.839328 74.9372 39.952366 75.067295 40.942536 C 75.190163 41.932707 75.255211 42.424178 75.255211 42.424178 C 75.255211 43.11802 74.864924 43.464941 74.09158 43.464941 C 74.09158 43.464941 73.24596 43.443259 71.569175 43.399894 C 69.885162 43.356529 67.753043 43.334846 65.172818 43.334846 C 62.607048 43.334846 59.875045 43.334846 56.976809 43.334846 C 54.100256 43.334846 51.4333 43.378211 48.968715 43.464941 C 46.533041 43.551672 44.624975 43.67454 43.237291 43.840773 C 41.95802 44.014233 40.642611 44.397292 39.298292 45.011631 C 37.975655 45.618743 37.231221 46.702871 37.05776 48.256788 C 36.956575 49.196366 37.245676 49.998621 37.939518 50.649098 C 38.63336 51.277892 39.370567 51.762136 40.151139 52.101829 C 40.570336 52.181332 41.914655 52.27529 44.184096 52.383703 C 46.475221 52.470433 49.214451 52.506571 52.409016 52.506571 C 55.60358 52.506571 58.805372 52.484888 62.021619 52.44875 C 65.252321 52.405385 67.984324 52.383703 70.210401 52.383703 C 72.45816 52.383703 73.751886 52.383703 74.09158 52.383703 C 74.864924 52.383703 75.255211 52.716169 75.255211 53.388328 L 75.255211 64.106742 C 75.255211 65.053548 75.255211 65.870258 75.255211 66.5641 C 75.255211 67.257942 75.255211 67.995149 75.255211 68.768494 C 75.255211 69.462336 74.864924 69.809257 74.09158 69.809257 C 72.617165 69.809257 70.571777 69.787574 67.940959 69.744209 C 65.339051 69.686389 62.628731 69.606886 59.809997 69.527383 C 57.020174 69.440653 54.497769 69.375606 52.25001 69.339468 C 50.023934 69.296103 48.527837 69.27442 47.776174 69.27442 C 46.916099 69.36115 45.853654 69.397288 44.588837 69.397288 C 43.352931 69.397288 42.167618 69.577976 41.032897 69.939352 C 39.919859 70.271818 39.110376 70.958433 38.60445 71.984741 C 37.744375 73.625388 37.867243 74.976935 38.980281 76.046608 C 40.093319 77.123508 41.34368 77.831805 42.731364 78.193182 C 43.59144 78.359415 45.362182 78.446145 48.029138 78.446145 C 50.696093 78.446145 53.717197 78.381097 57.099677 78.258229 C 60.503839 78.128134 63.770679 78.005266 66.900196 77.875171 C 70.051395 77.73062 72.450932 77.61498 74.09158 77.52825 C 74.864924 77.52825 75.255211 77.875171 75.255211 78.569013 Z M 75.255211 78.569013 " stroke="#000000" stroke-width="9.681525" stroke-opacity="1" stroke-miterlimit="4"/><g fill="#ffffff" fill-opacity="1"><g transform="translate(131.635498, 213.672624)"><g><path d="M 40.671875 -11.578125 C 40.671875 -10.972656 40.671875 -10.3125 40.671875 -9.59375 C 40.671875 -8.875 40.671875 -8.257812 40.671875 -7.75 C 40.671875 -7.375 40.679688 -6.8125 40.703125 -6.0625 C 40.734375 -5.320312 40.769531 -4.519531 40.8125 -3.65625 C 40.851562 -2.800781 40.882812 -2.070312 40.90625 -1.46875 C 40.9375 -0.863281 40.953125 -0.5625 40.953125 -0.5625 C 40.953125 -0.1875 40.765625 0 40.390625 0 L 2.65625 0 C 2 0 1.695312 -0.328125 1.75 -0.984375 C 1.882812 -4.460938 1.960938 -7.957031 1.984375 -11.46875 C 2.003906 -14.988281 2.039062 -18.515625 2.09375 -22.046875 C 2.132812 -25.484375 2.257812 -28.945312 2.46875 -32.4375 C 2.6875 -35.925781 2.535156 -39.394531 2.015625 -42.84375 C 1.972656 -43.113281 2.046875 -43.351562 2.234375 -43.5625 C 2.421875 -43.769531 2.65625 -43.875 2.9375 -43.875 L 40.109375 -43.875 C 40.390625 -43.875 40.578125 -43.738281 40.671875 -43.46875 C 40.671875 -43.414062 40.660156 -43.203125 40.640625 -42.828125 C 40.617188 -42.460938 40.582031 -42.09375 40.53125 -41.71875 C 40.53125 -41.488281 40.503906 -40.953125 40.453125 -40.109375 C 40.410156 -39.273438 40.378906 -38.40625 40.359375 -37.5 C 40.335938 -36.59375 40.328125 -35.90625 40.328125 -35.4375 C 40.328125 -34.976562 40.347656 -34.410156 40.390625 -33.734375 C 40.441406 -33.054688 40.5 -32.445312 40.5625 -31.90625 C 40.632812 -31.375 40.671875 -31.109375 40.671875 -31.109375 C 40.671875 -30.742188 40.460938 -30.5625 40.046875 -30.5625 C 40.046875 -30.5625 39.59375 -30.570312 38.6875 -30.59375 C 37.78125 -30.613281 36.628906 -30.625 35.234375 -30.625 C 33.835938 -30.625 32.359375 -30.625 30.796875 -30.625 C 29.242188 -30.625 27.800781 -30.597656 26.46875 -30.546875 C 25.144531 -30.503906 24.113281 -30.4375 23.375 -30.34375 C 22.675781 -30.25 21.960938 -30.039062 21.234375 -29.71875 C 20.515625 -29.394531 20.109375 -28.8125 20.015625 -27.96875 C 19.972656 -27.457031 20.132812 -27.023438 20.5 -26.671875 C 20.875 -26.328125 21.273438 -26.066406 21.703125 -25.890625 C 21.929688 -25.835938 22.660156 -25.785156 23.890625 -25.734375 C 25.128906 -25.691406 26.609375 -25.671875 28.328125 -25.671875 C 30.046875 -25.671875 31.773438 -25.679688 33.515625 -25.703125 C 35.265625 -25.734375 36.742188 -25.75 37.953125 -25.75 C 39.160156 -25.75 39.859375 -25.75 40.046875 -25.75 C 40.460938 -25.75 40.671875 -25.5625 40.671875 -25.1875 L 40.671875 -19.390625 C 40.671875 -18.878906 40.671875 -18.4375 40.671875 -18.0625 C 40.671875 -17.695312 40.671875 -17.304688 40.671875 -16.890625 C 40.671875 -16.515625 40.460938 -16.328125 40.046875 -16.328125 C 39.253906 -16.328125 38.148438 -16.335938 36.734375 -16.359375 C 35.316406 -16.378906 33.847656 -16.410156 32.328125 -16.453125 C 30.816406 -16.503906 29.457031 -16.539062 28.25 -16.5625 C 27.039062 -16.59375 26.226562 -16.609375 25.8125 -16.609375 C 25.34375 -16.554688 24.769531 -16.53125 24.09375 -16.53125 C 23.425781 -16.53125 22.789062 -16.4375 22.1875 -16.25 C 21.582031 -16.0625 21.140625 -15.691406 20.859375 -15.140625 C 20.390625 -14.253906 20.457031 -13.519531 21.0625 -12.9375 C 21.664062 -12.351562 22.34375 -11.972656 23.09375 -11.796875 C 23.5625 -11.703125 24.515625 -11.65625 25.953125 -11.65625 C 27.390625 -11.65625 29.023438 -11.6875 30.859375 -11.75 C 32.703125 -11.820312 34.472656 -11.890625 36.171875 -11.953125 C 37.867188 -12.023438 39.160156 -12.085938 40.046875 -12.140625 C 40.460938 -12.140625 40.671875 -11.953125 40.671875 -11.578125 Z M 40.671875 -11.578125 "/></g></g></g><path stroke-linecap="butt" transform="matrix(0.540469, 0, 0, 0.540469, 322.260891, 161.424642)" fill="none" stroke-linejoin="miter" d="M 76.295248 63.098369 C 76.295248 65.158213 76.273565 67.666162 76.2302 70.629446 C 76.186835 73.59273 76.165152 76.693337 76.165152 79.924039 C 76.165152 83.161968 76.150697 86.197527 76.107332 89.030716 C 76.063967 91.871131 76.042285 94.256214 76.042285 96.185962 C 76.042285 98.122937 76.08565 99.264886 76.165152 99.619034 C 76.165152 99.871998 76.071195 100.002093 75.883279 100.002093 L 42.607771 100.002093 C 42.419855 100.002093 42.325897 99.915363 42.325897 99.74913 C 41.986204 98.715594 41.660965 97.689286 41.342955 96.662978 C 41.053854 95.60776 40.735843 94.566997 40.403377 93.540689 C 39.622804 91.394115 38.99401 88.886165 38.509766 86.009612 C 38.047205 83.111376 37.346135 80.798569 36.39933 79.078419 C 35.980134 78.131613 35.358567 77.900333 34.541857 78.384577 C 33.71792 78.847138 33.313178 79.642165 33.313178 80.776886 C 33.139718 83.530572 33.118035 86.667316 33.248131 90.201574 C 33.370998 93.728604 33.479411 96.872576 33.558914 99.619034 C 33.558914 99.871998 33.479411 100.002093 33.313178 100.002093 L 3.622521 99.871998 C 3.434605 99.871998 3.340647 99.792495 3.340647 99.619034 C 3.340647 92.478243 3.427378 85.380817 3.593611 78.319529 C 3.781526 71.258241 3.875484 64.160815 3.875484 57.012796 C 3.875484 54.598804 3.853801 51.765615 3.810436 48.506003 C 3.774299 45.231936 3.752616 41.885594 3.752616 38.488659 C 3.752616 35.084496 3.730933 31.897159 3.687568 28.933876 C 3.644203 25.977819 3.600838 23.592737 3.557473 21.785857 C 3.521335 19.978977 3.499653 19.075536 3.499653 19.075536 C 3.499653 18.902076 3.579155 18.822573 3.752616 18.822573 L 36.146367 18.822573 C 36.233097 18.822573 36.3126 18.902076 36.39933 19.075536 C 37.006442 21.04865 37.562961 23.433732 38.068887 26.223555 C 38.596496 29.020606 39.153016 31.817657 39.738445 34.60748 C 40.345557 37.404531 41.039399 39.753475 41.819971 41.668768 C 42.152437 42.781806 42.846279 43.114272 43.901497 42.673394 C 44.674842 42.427658 45.108493 41.654313 45.187996 40.375042 C 45.361456 38.568161 45.462642 36.370995 45.506007 33.79077 C 45.549372 31.203317 45.571055 28.579727 45.571055 25.912772 C 45.571055 23.245816 45.571055 21.005285 45.571055 19.198404 C 45.571055 18.945441 45.650557 18.822573 45.824018 18.822573 L 76.165152 18.822573 C 76.338613 18.822573 76.418116 18.945441 76.418116 19.198404 C 76.418116 19.285134 76.418116 19.364637 76.418116 19.451367 C 76.418116 26.765619 76.396433 34.050961 76.360296 41.321847 C 76.31693 48.592734 76.295248 55.849165 76.295248 63.098369 Z M 76.295248 63.098369 " stroke="#000000" stroke-width="9.681525" stroke-opacity="1" stroke-miterlimit="4"/><g fill="#ffffff" fill-opacity="1"><g transform="translate(322.260891, 215.471525)"><g><path d="M 41.234375 -19.953125 C 41.234375 -18.835938 41.21875 -17.476562 41.1875 -15.875 C 41.164062 -14.269531 41.15625 -12.59375 41.15625 -10.84375 C 41.15625 -9.101562 41.144531 -7.460938 41.125 -5.921875 C 41.101562 -4.390625 41.09375 -3.097656 41.09375 -2.046875 C 41.09375 -1.003906 41.113281 -0.390625 41.15625 -0.203125 C 41.15625 -0.0664062 41.109375 0 41.015625 0 L 23.015625 0 C 22.929688 0 22.890625 -0.046875 22.890625 -0.140625 C 22.703125 -0.703125 22.523438 -1.257812 22.359375 -1.8125 C 22.191406 -2.375 22.019531 -2.929688 21.84375 -3.484375 C 21.414062 -4.648438 21.070312 -6.007812 20.8125 -7.5625 C 20.5625 -9.125 20.179688 -10.367188 19.671875 -11.296875 C 19.441406 -11.804688 19.101562 -11.929688 18.65625 -11.671875 C 18.21875 -11.421875 18 -10.992188 18 -10.390625 C 17.90625 -8.898438 17.890625 -7.203125 17.953125 -5.296875 C 18.023438 -3.390625 18.085938 -1.691406 18.140625 -0.203125 C 18.140625 -0.0664062 18.09375 0 18 0 L 1.953125 -0.0625 C 1.859375 -0.0625 1.8125 -0.109375 1.8125 -0.203125 C 1.8125 -4.066406 1.859375 -7.90625 1.953125 -11.71875 C 2.046875 -15.53125 2.09375 -19.367188 2.09375 -23.234375 C 2.09375 -24.535156 2.078125 -26.066406 2.046875 -27.828125 C 2.023438 -29.597656 2.015625 -31.398438 2.015625 -33.234375 C 2.015625 -35.078125 2.003906 -36.800781 1.984375 -38.40625 C 1.960938 -40.007812 1.941406 -41.300781 1.921875 -42.28125 C 1.898438 -43.257812 1.890625 -43.75 1.890625 -43.75 C 1.890625 -43.832031 1.929688 -43.875 2.015625 -43.875 L 19.53125 -43.875 C 19.582031 -43.875 19.628906 -43.832031 19.671875 -43.75 C 19.992188 -42.675781 20.296875 -41.382812 20.578125 -39.875 C 20.859375 -38.363281 21.160156 -36.847656 21.484375 -35.328125 C 21.804688 -33.816406 22.179688 -32.550781 22.609375 -31.53125 C 22.796875 -30.925781 23.164062 -30.738281 23.71875 -30.96875 C 24.132812 -31.113281 24.367188 -31.535156 24.421875 -32.234375 C 24.515625 -33.210938 24.570312 -34.394531 24.59375 -35.78125 C 24.613281 -37.175781 24.625 -38.59375 24.625 -40.03125 C 24.625 -41.476562 24.625 -42.691406 24.625 -43.671875 C 24.625 -43.804688 24.671875 -43.875 24.765625 -43.875 L 41.15625 -43.875 C 41.25 -43.875 41.296875 -43.804688 41.296875 -43.671875 C 41.296875 -43.628906 41.296875 -43.582031 41.296875 -43.53125 C 41.296875 -39.582031 41.285156 -35.640625 41.265625 -31.703125 C 41.242188 -27.773438 41.234375 -23.859375 41.234375 -19.953125 Z M 41.234375 -19.953125 "/></g></g></g><path stroke-linecap="butt" transform="matrix(0.540469, 0, 0, 0.540469, 204.92731, 160.525185)" fill="none" stroke-linejoin="miter" d="M 76.298114 42.552413 C 76.377617 43.499218 76.399299 45.089273 76.355934 47.34426 C 76.312569 49.570336 76.218611 51.80364 76.074061 54.0514 C 75.951193 56.277476 75.75605 57.867531 75.510314 58.814336 C 75.08389 61.062095 74.375593 63.432722 73.36374 65.933445 C 72.37357 68.412484 70.76906 70.819249 68.542984 73.153738 C 66.39641 75.401498 64.510027 77.013235 62.869379 78.003405 C 61.228732 78.993576 59.855503 79.781376 58.742465 80.366805 C 57.35478 81.147377 55.388895 81.819537 52.852035 82.383283 C 50.307947 82.954257 47.85059 83.380681 45.472735 83.67701 C 43.123791 83.973338 41.468689 84.117888 40.529111 84.117888 C 38.54877 84.117888 37.283954 84.486492 36.712979 85.216472 C 36.163688 85.953679 35.802312 87.225723 35.607169 89.032603 C 35.440936 90.145641 35.361433 91.627283 35.361433 93.477529 C 35.361433 95.327774 35.361433 96.982876 35.361433 98.457291 C 35.361433 99.483599 34.971147 99.996753 34.190575 99.996753 L 4.630012 99.996753 C 3.769937 99.996753 3.343513 99.483599 3.343513 98.457291 C 3.343513 98.457291 3.357968 97.423755 3.401334 95.363912 C 3.466381 93.289613 3.538656 90.745525 3.625387 87.738877 C 3.704889 84.739455 3.769937 81.776171 3.813302 78.856253 C 3.856667 75.914652 3.87835 73.493432 3.87835 71.607049 C 3.957853 64.379528 3.93617 57.130324 3.813302 49.859437 C 3.690434 42.595778 3.625387 35.288754 3.625387 27.960047 C 3.538656 25.126859 3.495291 22.286443 3.495291 19.453255 C 3.495291 19.034059 3.748255 18.817233 4.254181 18.817233 L 54.080713 18.817233 C 55.63463 18.817233 57.499331 19.106334 59.68927 19.67008 C 61.893664 20.219372 64.459434 21.607056 67.379353 23.833133 C 69.352466 25.38705 70.935293 27.287888 72.135062 29.535647 C 73.356513 31.761724 74.274408 34.038393 74.91043 36.372882 C 75.560907 38.685689 76.023468 40.745533 76.298114 42.552413 Z M 43.774268 43.463081 C 43.774268 42.855969 43.716448 42.075397 43.615262 41.135819 C 43.528532 40.189014 43.224976 39.357849 42.704595 38.642324 C 42.198668 37.905117 41.345821 37.536513 40.146052 37.536513 C 38.953511 37.536513 38.071753 37.926799 37.500779 38.707372 C 36.937033 39.459034 36.590112 40.290199 36.460016 41.193639 C 36.337148 42.097079 36.272101 42.812604 36.272101 43.340213 C 36.18537 44.113558 36.12755 45.385601 36.084185 47.149117 C 36.04082 48.919859 35.997455 50.683375 35.95409 52.44689 C 35.917952 54.210405 35.939635 55.431856 36.019137 56.104016 C 36.019137 56.711127 36.084185 57.506155 36.207053 58.496325 C 36.337148 59.486496 36.647932 60.389936 37.153858 61.206646 C 37.681467 62.023356 38.592135 62.435324 39.893089 62.435324 C 41.699969 62.435324 42.77687 61.792075 43.109336 60.512804 C 43.449029 59.21185 43.665855 58.171087 43.774268 57.390514 C 43.774268 56.530439 43.79595 55.113845 43.832088 53.140732 C 43.875453 51.167619 43.897136 49.230643 43.897136 47.34426 C 43.897136 45.450649 43.853771 44.156923 43.774268 43.463081 Z M 43.774268 43.463081 " stroke="#000000" stroke-width="9.681525" stroke-opacity="1" stroke-miterlimit="4"/><g fill="#ffffff" fill-opacity="1"><g transform="translate(204.92731, 214.572068)"><g><path d="M 41.234375 -31.046875 C 41.273438 -30.535156 41.285156 -29.675781 41.265625 -28.46875 C 41.242188 -27.257812 41.195312 -26.046875 41.125 -24.828125 C 41.050781 -23.617188 40.945312 -22.757812 40.8125 -22.25 C 40.582031 -21.039062 40.195312 -19.757812 39.65625 -18.40625 C 39.125 -17.0625 38.253906 -15.765625 37.046875 -14.515625 C 35.878906 -13.304688 34.851562 -12.429688 33.96875 -11.890625 C 33.09375 -11.359375 32.351562 -10.929688 31.75 -10.609375 C 31 -10.179688 29.9375 -9.816406 28.5625 -9.515625 C 27.195312 -9.210938 25.875 -8.976562 24.59375 -8.8125 C 23.3125 -8.65625 22.414062 -8.578125 21.90625 -8.578125 C 20.832031 -8.578125 20.144531 -8.378906 19.84375 -7.984375 C 19.539062 -7.585938 19.34375 -6.90625 19.25 -5.9375 C 19.15625 -5.320312 19.109375 -4.515625 19.109375 -3.515625 C 19.109375 -2.515625 19.109375 -1.625 19.109375 -0.84375 C 19.109375 -0.28125 18.898438 0 18.484375 0 L 2.515625 0 C 2.046875 0 1.8125 -0.28125 1.8125 -0.84375 C 1.8125 -0.84375 1.820312 -1.398438 1.84375 -2.515625 C 1.875 -3.628906 1.910156 -5 1.953125 -6.625 C 1.992188 -8.25 2.023438 -9.851562 2.046875 -11.4375 C 2.078125 -13.019531 2.09375 -14.320312 2.09375 -15.34375 C 2.132812 -19.25 2.117188 -23.164062 2.046875 -27.09375 C 1.984375 -31.03125 1.953125 -34.972656 1.953125 -38.921875 C 1.910156 -40.460938 1.890625 -42 1.890625 -43.53125 C 1.890625 -43.757812 2.023438 -43.875 2.296875 -43.875 L 29.234375 -43.875 C 30.066406 -43.875 31.078125 -43.722656 32.265625 -43.421875 C 33.453125 -43.117188 34.835938 -42.363281 36.421875 -41.15625 C 37.484375 -40.320312 38.335938 -39.300781 38.984375 -38.09375 C 39.640625 -36.882812 40.140625 -35.648438 40.484375 -34.390625 C 40.835938 -33.140625 41.085938 -32.023438 41.234375 -31.046875 Z M 23.65625 -30.5625 C 23.65625 -30.882812 23.628906 -31.300781 23.578125 -31.8125 C 23.535156 -32.320312 23.375 -32.773438 23.09375 -33.171875 C 22.8125 -33.566406 22.347656 -33.765625 21.703125 -33.765625 C 21.046875 -33.765625 20.566406 -33.554688 20.265625 -33.140625 C 19.960938 -32.722656 19.773438 -32.269531 19.703125 -31.78125 C 19.640625 -31.289062 19.609375 -30.90625 19.609375 -30.625 C 19.554688 -30.207031 19.519531 -29.519531 19.5 -28.5625 C 19.476562 -27.613281 19.453125 -26.660156 19.421875 -25.703125 C 19.398438 -24.753906 19.414062 -24.09375 19.46875 -23.71875 C 19.46875 -23.394531 19.5 -22.960938 19.5625 -22.421875 C 19.632812 -21.890625 19.8125 -21.398438 20.09375 -20.953125 C 20.375 -20.515625 20.863281 -20.296875 21.5625 -20.296875 C 22.53125 -20.296875 23.109375 -20.644531 23.296875 -21.34375 C 23.484375 -22.039062 23.601562 -22.597656 23.65625 -23.015625 C 23.65625 -23.484375 23.664062 -24.25 23.6875 -25.3125 C 23.707031 -26.382812 23.71875 -27.429688 23.71875 -28.453125 C 23.71875 -29.484375 23.695312 -30.1875 23.65625 -30.5625 Z M 23.65625 -30.5625 "/></g></g></g><g clip-path="url(#361fc6eb09)"><g clip-path="url(#6846172529)"><g clip-path="url(#74c08fdda5)"><path fill="#ffde59" d="M 183.550781 160.515625 L 173.234375 198.832031 L 185.367188 198.421875 L 180.300781 234.785156 L 205.464844 186.84375 L 194.003906 187.113281 L 209.007812 160.191406 Z M 183.550781 160.515625 " fill-opacity="1" fill-rule="nonzero"/></g></g></g><path stroke-linecap="butt" transform="matrix(0.540469, 0, 0, 0.540469, 90.986094, 159.625742)" fill="none" stroke-linejoin="miter" d="M 82.217103 61.020591 C 82.217103 62.487778 82.238785 64.706627 82.282151 67.66991 C 82.325516 70.625967 82.390563 73.914489 82.470066 77.52825 C 82.556796 81.14201 82.657982 84.611221 82.788077 87.928653 C 82.932627 91.253313 83.026585 93.992543 83.06995 96.153572 C 83.113316 98.300146 83.134998 99.369819 83.134998 99.369819 C 83.134998 99.789015 83.004903 99.998613 82.751939 99.998613 L 55.901698 99.998613 C 55.547549 99.998613 55.366861 99.789015 55.366861 99.369819 C 55.453591 95.734376 55.431909 92.185663 55.309041 88.716453 C 55.178945 85.232787 55.113898 81.503386 55.113898 77.52825 C 55.113898 76.668175 54.752522 76.089973 54.015315 75.800872 C 53.278107 75.504544 52.830001 75.786417 52.656541 76.646492 C 51.883196 81.040825 51.232719 85.001507 50.70511 88.528537 C 50.199183 92.041112 49.599299 95.691011 48.912684 99.492687 C 48.825954 99.83238 48.659721 99.998613 48.406758 99.998613 L 36.27175 99.998613 C 36.018786 99.998613 35.895919 99.83238 35.895919 99.492687 C 35.115346 95.965657 34.594965 92.308531 34.320319 88.528537 C 34.067356 84.726861 33.554202 81.019142 32.773629 77.405382 C 32.520666 76.205613 32.029195 75.584046 31.291987 75.547909 C 30.55478 75.504544 30.193404 76.082745 30.193404 77.275286 C 30.294589 80.469851 30.193404 84.141432 29.875393 88.275574 C 29.579065 92.395261 29.434514 96.095752 29.434514 99.369819 C 29.434514 99.789015 29.304419 99.998613 29.058683 99.998613 L 3.877999 99.998613 C 3.516623 99.998613 3.343162 99.789015 3.343162 99.369819 L 3.343162 98.582019 C 3.531078 94.274417 3.668401 89.36693 3.747904 83.866786 C 3.834634 78.359415 3.899681 72.772541 3.935819 67.098936 C 3.979184 61.403649 4.000867 56.069739 4.000867 51.089976 C 4.000867 46.088532 3.979184 41.889342 3.935819 38.485179 C 3.899681 35.081017 3.877999 32.999491 3.877999 32.247828 C 3.877999 30.166302 3.856316 28.099231 3.812951 26.039387 C 3.769586 23.979544 3.747904 21.869108 3.747904 19.700851 C 3.747904 19.621348 3.747904 19.534618 3.747904 19.447888 C 3.747904 19.028692 3.921364 18.819094 4.25383 18.819094 L 39.487997 18.819094 C 39.675912 18.819094 39.813235 18.985327 39.892738 19.32502 C 40.319162 22.852051 40.608262 26.429674 40.781723 30.036207 C 40.969639 33.649967 41.396062 37.05413 42.068222 40.248694 C 42.154952 40.754621 42.429598 41.101542 42.892159 41.289458 C 43.376403 41.455691 43.795599 41.491828 44.149748 41.383415 C 44.568944 41.217182 44.886955 41.072632 45.096553 40.942536 C 45.327834 40.819669 45.486839 40.154737 45.566342 38.954968 C 45.566342 38.261126 45.653072 36.707209 45.819305 34.293217 C 45.985538 31.879225 46.216819 29.270089 46.513147 26.480266 C 46.831158 23.683215 47.113032 21.298133 47.365995 19.32502 C 47.445498 18.985327 47.626186 18.819094 47.900831 18.819094 L 82.470066 18.819094 C 82.831442 18.819094 83.004903 19.028692 83.004903 19.447888 C 83.004903 26.342943 82.86758 33.252454 82.600162 40.183647 C 82.347198 47.100385 82.217103 54.046033 82.217103 61.020591 Z M 82.217103 61.020591 " stroke="#000000" stroke-width="9.681525" stroke-opacity="1" stroke-miterlimit="4"/><g fill="#ffffff" fill-opacity="1"><g transform="translate(90.986094, 213.672624)"><g><path d="M 44.4375 -21.0625 C 44.4375 -20.28125 44.445312 -19.082031 44.46875 -17.46875 C 44.5 -15.863281 44.535156 -14.082031 44.578125 -12.125 C 44.628906 -10.175781 44.6875 -8.304688 44.75 -6.515625 C 44.820312 -4.734375 44.867188 -3.257812 44.890625 -2.09375 C 44.910156 -0.925781 44.921875 -0.34375 44.921875 -0.34375 C 44.921875 -0.113281 44.851562 0 44.71875 0 L 30.203125 0 C 30.015625 0 29.921875 -0.113281 29.921875 -0.34375 C 29.972656 -2.300781 29.960938 -4.222656 29.890625 -6.109375 C 29.828125 -7.992188 29.796875 -10.003906 29.796875 -12.140625 C 29.796875 -12.609375 29.597656 -12.921875 29.203125 -13.078125 C 28.804688 -13.242188 28.5625 -13.09375 28.46875 -12.625 C 28.050781 -10.25 27.703125 -8.109375 27.421875 -6.203125 C 27.140625 -4.296875 26.8125 -2.320312 26.4375 -0.28125 C 26.394531 -0.09375 26.300781 0 26.15625 0 L 19.609375 0 C 19.460938 0 19.390625 -0.09375 19.390625 -0.28125 C 18.972656 -2.1875 18.691406 -4.160156 18.546875 -6.203125 C 18.410156 -8.253906 18.132812 -10.253906 17.71875 -12.203125 C 17.582031 -12.859375 17.316406 -13.195312 16.921875 -13.21875 C 16.523438 -13.238281 16.328125 -12.925781 16.328125 -12.28125 C 16.367188 -10.5625 16.304688 -8.582031 16.140625 -6.34375 C 15.984375 -4.113281 15.90625 -2.113281 15.90625 -0.34375 C 15.90625 -0.113281 15.835938 0 15.703125 0 L 2.09375 0 C 1.90625 0 1.8125 -0.113281 1.8125 -0.34375 L 1.8125 -0.765625 C 1.90625 -3.085938 1.972656 -5.738281 2.015625 -8.71875 C 2.066406 -11.695312 2.101562 -14.71875 2.125 -17.78125 C 2.144531 -20.851562 2.15625 -23.738281 2.15625 -26.4375 C 2.15625 -29.132812 2.144531 -31.398438 2.125 -33.234375 C 2.101562 -35.078125 2.09375 -36.207031 2.09375 -36.625 C 2.09375 -37.738281 2.078125 -38.851562 2.046875 -39.96875 C 2.023438 -41.09375 2.015625 -42.234375 2.015625 -43.390625 C 2.015625 -43.441406 2.015625 -43.488281 2.015625 -43.53125 C 2.015625 -43.757812 2.109375 -43.875 2.296875 -43.875 L 21.34375 -43.875 C 21.4375 -43.875 21.507812 -43.785156 21.5625 -43.609375 C 21.789062 -41.703125 21.953125 -39.769531 22.046875 -37.8125 C 22.140625 -35.851562 22.375 -34.015625 22.75 -32.296875 C 22.789062 -32.023438 22.9375 -31.84375 23.1875 -31.75 C 23.445312 -31.65625 23.671875 -31.628906 23.859375 -31.671875 C 24.085938 -31.765625 24.257812 -31.84375 24.375 -31.90625 C 24.5 -31.976562 24.582031 -32.34375 24.625 -33 C 24.625 -33.375 24.671875 -34.210938 24.765625 -35.515625 C 24.859375 -36.816406 24.984375 -38.222656 25.140625 -39.734375 C 25.304688 -41.242188 25.460938 -42.535156 25.609375 -43.609375 C 25.648438 -43.785156 25.742188 -43.875 25.890625 -43.875 L 44.578125 -43.875 C 44.765625 -43.875 44.859375 -43.757812 44.859375 -43.53125 C 44.859375 -39.8125 44.785156 -36.078125 44.640625 -32.328125 C 44.503906 -28.585938 44.4375 -24.832031 44.4375 -21.0625 Z M 44.4375 -21.0625 "/></g></g></g><path stroke-linecap="butt" transform="matrix(0.540469, 0, 0, 0.540469, 49.182976, 159.625742)" fill="none" stroke-linejoin="miter" d="M 77.964416 99.998613 L 35.893015 99.998613 C 35.538866 99.998613 35.358178 99.789015 35.358178 99.369819 C 35.444908 97.729172 35.611141 95.51755 35.864105 92.720499 C 36.13875 89.901766 36.420624 87.075805 36.716952 84.242617 C 37.027736 81.409429 37.273471 79.212262 37.439704 77.658345 C 37.519207 77.492112 37.692667 77.362017 37.945631 77.275286 C 38.213049 77.195784 38.437102 77.152418 38.603335 77.152418 C 38.769568 77.239149 39.28995 77.275286 40.150025 77.275286 C 41.0101 77.275286 41.891857 77.275286 42.795298 77.275286 C 43.698738 77.275286 44.276939 77.275286 44.529903 77.275286 C 44.529903 77.275286 44.898506 77.109053 45.628486 76.776587 C 46.365693 76.415211 46.734297 75.8081 46.734297 74.948024 C 46.647566 74.528828 46.452423 73.264012 46.134412 71.168031 C 45.845312 69.04314 45.498391 66.629147 45.093649 63.918827 C 44.717818 61.208506 44.370897 58.613826 44.052886 56.134786 C 43.763785 53.634064 43.57587 51.776591 43.48914 50.55514 C 43.402409 48.661529 43.142219 47.078702 42.70134 45.799431 C 42.282144 44.491249 41.638894 43.840773 40.778819 43.840773 C 39.579051 43.76127 38.740658 44.346699 38.256414 45.604288 C 37.793853 46.847421 37.519207 47.815909 37.439704 48.509751 C 37.186741 50.396134 36.75309 53.06309 36.145978 56.510617 C 35.538866 59.936463 34.845024 63.716456 34.064452 67.857826 C 33.291107 71.991968 32.5539 76.133338 31.860058 80.274708 C 31.187898 84.387167 30.609697 88.152706 30.125453 91.556869 C 29.662891 94.961031 29.388245 97.562939 29.308743 99.369819 C 29.308743 99.789015 29.178647 99.998613 28.932912 99.998613 L 2.834332 99.998613 C 2.501866 99.998613 2.371771 99.738423 2.458501 99.210814 C 2.545231 98.878348 2.603051 98.516972 2.646416 98.14114 C 2.689782 97.743627 2.754829 97.375023 2.834332 97.03533 C 3.007792 96.261985 3.340258 94.599655 3.846185 92.055568 C 4.366566 89.518708 4.959223 86.656609 5.6097 83.483727 C 6.260177 80.29639 6.881744 77.217466 7.467173 74.254182 C 8.081512 71.290899 8.601894 68.992547 9.042773 67.3519 C 9.209006 66.217179 9.527017 64.323568 9.989578 61.678295 C 10.473822 59.01134 10.986976 55.932416 11.536268 52.44875 C 12.100014 48.957858 12.692671 45.387462 13.299783 41.730336 C 13.906895 38.073211 14.441731 34.611228 14.904293 31.329933 C 15.388537 28.055866 15.800505 25.345545 16.132971 23.198972 C 16.472665 21.037943 16.638898 19.744216 16.638898 19.32502 C 16.725628 18.985327 16.899089 18.819094 17.173734 18.819094 L 64.159851 18.819094 C 64.333311 18.819094 64.456179 18.985327 64.542909 19.32502 C 64.709142 20.185095 65.019926 21.970293 65.482487 24.680613 C 65.966731 27.390934 66.479885 30.426493 67.029177 33.78729 C 67.600151 37.133633 68.142215 40.335425 68.669824 43.399894 C 69.190206 46.449908 69.623857 48.83499 69.96355 50.55514 C 70.570662 54.002668 71.127181 57.442968 71.633108 60.890495 C 72.153489 64.338023 72.673871 67.785551 73.17257 71.225851 C 73.360485 71.89801 73.606221 73.213419 73.902549 75.16485 C 74.19165 77.101826 74.574709 79.298992 75.03727 81.75635 C 75.514287 84.192024 75.969621 86.656609 76.388817 89.157331 C 76.829696 91.658054 77.241664 93.811855 77.617495 95.618736 C 78.015009 97.425616 78.260745 98.625384 78.340248 99.210814 C 78.513708 99.738423 78.383613 99.998613 77.964416 99.998613 Z M 77.964416 99.998613 " stroke="#000000" stroke-width="9.681525" stroke-opacity="1" stroke-miterlimit="4"/><g fill="#ffffff" fill-opacity="1"><g transform="translate(49.182976, 213.672624)"><g><path d="M 42.140625 0 L 19.390625 0 C 19.203125 0 19.109375 -0.113281 19.109375 -0.34375 C 19.160156 -1.226562 19.253906 -2.425781 19.390625 -3.9375 C 19.535156 -5.445312 19.6875 -6.96875 19.84375 -8.5 C 20.007812 -10.039062 20.140625 -11.226562 20.234375 -12.0625 C 20.273438 -12.15625 20.363281 -12.222656 20.5 -12.265625 C 20.644531 -12.316406 20.765625 -12.34375 20.859375 -12.34375 C 20.953125 -12.300781 21.226562 -12.28125 21.6875 -12.28125 C 22.15625 -12.28125 22.632812 -12.28125 23.125 -12.28125 C 23.613281 -12.28125 23.925781 -12.28125 24.0625 -12.28125 C 24.0625 -12.28125 24.257812 -12.375 24.65625 -12.5625 C 25.050781 -12.75 25.25 -13.070312 25.25 -13.53125 C 25.207031 -13.769531 25.101562 -14.457031 24.9375 -15.59375 C 24.78125 -16.726562 24.59375 -18.03125 24.375 -19.5 C 24.164062 -20.96875 23.976562 -22.375 23.8125 -23.71875 C 23.65625 -25.070312 23.554688 -26.070312 23.515625 -26.71875 C 23.460938 -27.738281 23.320312 -28.597656 23.09375 -29.296875 C 22.863281 -29.992188 22.515625 -30.34375 22.046875 -30.34375 C 21.390625 -30.394531 20.929688 -30.082031 20.671875 -29.40625 C 20.421875 -28.726562 20.273438 -28.207031 20.234375 -27.84375 C 20.085938 -26.8125 19.851562 -25.363281 19.53125 -23.5 C 19.207031 -21.644531 18.835938 -19.597656 18.421875 -17.359375 C 18.003906 -15.128906 17.609375 -12.898438 17.234375 -10.671875 C 16.859375 -8.441406 16.539062 -6.40625 16.28125 -4.5625 C 16.03125 -2.726562 15.882812 -1.320312 15.84375 -0.34375 C 15.84375 -0.113281 15.769531 0 15.625 0 L 1.53125 0 C 1.34375 0 1.273438 -0.140625 1.328125 -0.421875 C 1.367188 -0.609375 1.398438 -0.804688 1.421875 -1.015625 C 1.453125 -1.222656 1.488281 -1.421875 1.53125 -1.609375 C 1.625 -2.023438 1.8125 -2.914062 2.09375 -4.28125 C 2.375 -5.65625 2.6875 -7.203125 3.03125 -8.921875 C 3.382812 -10.648438 3.722656 -12.316406 4.046875 -13.921875 C 4.367188 -15.523438 4.648438 -16.769531 4.890625 -17.65625 C 4.972656 -18.257812 5.144531 -19.28125 5.40625 -20.71875 C 5.664062 -22.164062 5.945312 -23.828125 6.25 -25.703125 C 6.550781 -27.585938 6.863281 -29.519531 7.1875 -31.5 C 7.507812 -33.476562 7.796875 -35.347656 8.046875 -37.109375 C 8.304688 -38.878906 8.53125 -40.34375 8.71875 -41.5 C 8.90625 -42.664062 9 -43.367188 9 -43.609375 C 9.039062 -43.785156 9.132812 -43.875 9.28125 -43.875 L 34.671875 -43.875 C 34.765625 -43.875 34.832031 -43.785156 34.875 -43.609375 C 34.96875 -43.140625 35.144531 -42.171875 35.40625 -40.703125 C 35.664062 -39.242188 35.945312 -37.601562 36.25 -35.78125 C 36.550781 -33.96875 36.835938 -32.234375 37.109375 -30.578125 C 37.390625 -28.929688 37.625 -27.644531 37.8125 -26.71875 C 38.132812 -24.851562 38.4375 -22.988281 38.71875 -21.125 C 39 -19.269531 39.28125 -17.414062 39.5625 -15.5625 C 39.65625 -15.1875 39.78125 -14.472656 39.9375 -13.421875 C 40.101562 -12.378906 40.3125 -11.195312 40.5625 -9.875 C 40.820312 -8.550781 41.066406 -7.210938 41.296875 -5.859375 C 41.535156 -4.515625 41.757812 -3.351562 41.96875 -2.375 C 42.175781 -1.394531 42.300781 -0.742188 42.34375 -0.421875 C 42.4375 -0.140625 42.367188 0 42.140625 0 Z M 42.140625 0 "/></g></g></g><path stroke-linecap="butt" transform="matrix(0.540469, 0, 0, 0.540469, 8.053372, 159.625742)" fill="none" stroke-linejoin="miter" d="M 74.33749 79.486908 C 74.33749 80.346983 74.380855 81.806942 74.467586 83.866786 C 74.554316 85.926629 74.633819 88.116568 74.720549 90.451058 C 74.821734 92.763865 74.915692 94.758661 75.002422 96.435445 C 75.089153 98.119458 75.12529 98.95785 75.12529 98.95785 C 75.12529 99.651692 74.742231 99.998613 73.961659 99.998613 C 73.961659 99.998613 73.079902 99.998613 71.316386 99.998613 C 69.552871 99.998613 67.247292 99.998613 64.414103 99.998613 C 61.580915 99.998613 58.559811 99.998613 55.372474 99.998613 C 52.199592 99.998613 49.200171 99.998613 46.388665 99.998613 C 43.591614 99.998613 41.293263 99.998613 39.486382 99.998613 C 37.679502 99.998613 36.819427 99.998613 36.89893 99.998613 C 37.426539 99.998613 37.000115 99.998613 35.612431 99.998613 C 34.246429 99.998613 32.374501 99.875746 30.003874 99.622782 C 27.647702 99.348137 25.240938 98.914485 22.78358 98.329056 C 20.326223 97.721944 18.280835 96.775139 16.640187 95.495868 C 13.380575 93.074648 10.778668 90.675111 8.827237 88.275574 C 6.890261 85.861582 5.589307 83.613823 4.917148 81.532296 C 4.389539 80.086792 4.020935 78.453372 3.811337 76.646492 C 3.601739 74.839612 3.442733 73.162827 3.341548 71.60891 C 3.254818 70.054993 3.175315 68.884134 3.088585 68.110789 C 3.088585 68.110789 3.088585 68.067424 3.088585 67.980694 L 3.088585 52.759534 C 3.088585 50.873151 3.233135 48.957858 3.529464 47.028109 C 3.847475 45.069451 4.172713 43.580582 4.505179 42.547046 C 5.365254 39.880091 6.232557 37.560056 7.092632 35.586943 C 7.952707 33.61383 9.246433 31.460028 10.966583 29.125539 C 11.913388 27.759538 13.611856 26.277896 16.069213 24.680613 C 18.52657 23.083331 21.301939 21.710102 24.38809 20.553699 C 27.503152 19.397295 30.517028 18.819094 33.436947 18.819094 C 33.436947 18.819094 34.405435 18.819094 36.335183 18.819094 C 38.264931 18.819094 40.780109 18.819094 43.86626 18.819094 C 46.974094 18.819094 50.255389 18.819094 53.695689 18.819094 C 57.143217 18.819094 60.410057 18.819094 63.503436 18.819094 C 66.61127 18.819094 69.133675 18.819094 71.063423 18.819094 C 72.993171 18.819094 73.961659 18.819094 73.961659 18.819094 C 74.742231 18.819094 75.12529 19.202152 75.12529 19.953814 C 75.12529 19.953814 75.12529 21.037943 75.12529 23.198972 C 75.12529 25.345545 75.110835 28.034183 75.06747 31.272113 C 75.024105 34.481132 74.98074 37.769655 74.937375 41.130452 C 74.894009 44.491249 74.879554 47.382258 74.879554 49.79625 C 74.879554 50.576822 74.489268 50.909288 73.708696 50.808103 C 72.761891 50.808103 71.186291 50.786421 68.981897 50.743055 C 66.799186 50.69969 64.327373 50.64187 61.580915 50.55514 C 58.827229 50.46841 56.073544 50.410589 53.319858 50.367224 C 50.566173 50.323859 48.173863 50.302177 46.135702 50.302177 C 44.119224 50.302177 42.724312 50.302177 41.94374 50.302177 C 40.996934 50.388907 39.898351 50.446727 38.633535 50.490092 C 37.397629 50.533457 36.219543 50.945426 35.106504 51.718771 C 33.993466 52.499343 33.212894 54.002668 32.772015 56.228744 C 32.519052 57.782661 32.374501 59.640134 32.331136 61.808391 C 32.287771 63.947737 32.273316 65.573929 32.273316 66.686968 C 32.099856 69.27442 32.764787 71.341491 34.253657 72.895408 C 35.771436 74.449325 38.329979 75.229898 41.94374 75.229898 C 44.111996 75.229898 45.35513 74.882977 45.694823 74.189135 C 46.034517 73.495293 46.157385 72.078698 46.070654 69.939352 C 45.991152 68.717901 46.012834 66.911021 46.135702 64.518711 C 46.25857 62.097491 46.323618 60.196653 46.323618 58.808969 C 46.43203 58.556006 46.591036 58.201857 46.800634 57.739296 C 47.010232 57.255052 47.624571 57.016544 48.658107 57.016544 C 48.73761 57.016544 49.64105 57.016544 51.368427 57.016544 C 53.088578 57.016544 55.162876 57.016544 57.576868 57.016544 C 59.99086 57.016544 62.397625 57.038227 64.789935 57.081592 C 67.211154 57.117729 69.256543 57.139412 70.940555 57.139412 C 72.61734 57.139412 73.499098 57.096047 73.585828 57.016544 C 74.359173 57.016544 74.749459 57.40683 74.749459 58.180175 C 74.749459 59.04025 74.749459 59.922008 74.749459 60.825448 C 74.749459 61.728888 74.698866 62.617873 74.590454 63.477948 C 74.590454 65.704025 74.568771 67.590408 74.532633 69.151552 C 74.489268 70.705469 74.445903 72.259387 74.402538 73.813304 C 74.359173 75.345538 74.33749 77.239149 74.33749 79.486908 Z M 74.33749 79.486908 " stroke="#000000" stroke-width="9.681525" stroke-opacity="1" stroke-miterlimit="4"/><g fill="#ffffff" fill-opacity="1"><g transform="translate(8.053372, 213.672624)"><g><path d="M 40.1875 -11.09375 C 40.1875 -10.625 40.207031 -9.832031 40.25 -8.71875 C 40.300781 -7.601562 40.347656 -6.414062 40.390625 -5.15625 C 40.441406 -3.90625 40.488281 -2.828125 40.53125 -1.921875 C 40.582031 -1.015625 40.609375 -0.5625 40.609375 -0.5625 C 40.609375 -0.1875 40.394531 0 39.96875 0 C 39.96875 0 39.488281 0 38.53125 0 C 37.582031 0 36.34375 0 34.8125 0 C 33.28125 0 31.648438 0 29.921875 0 C 28.203125 0 26.585938 0 25.078125 0 C 23.566406 0 22.320312 0 21.34375 0 C 20.375 0 19.910156 0 19.953125 0 C 20.234375 0 20 0 19.25 0 C 18.507812 0 17.5 -0.0664062 16.21875 -0.203125 C 14.9375 -0.347656 13.632812 -0.582031 12.3125 -0.90625 C 10.988281 -1.226562 9.882812 -1.738281 9 -2.4375 C 7.226562 -3.738281 5.816406 -5.039062 4.765625 -6.34375 C 3.722656 -7.644531 3.019531 -8.851562 2.65625 -9.96875 C 2.375 -10.757812 2.175781 -11.644531 2.0625 -12.625 C 1.945312 -13.601562 1.863281 -14.507812 1.8125 -15.34375 C 1.769531 -16.1875 1.722656 -16.816406 1.671875 -17.234375 C 1.671875 -17.234375 1.671875 -17.253906 1.671875 -17.296875 L 1.671875 -25.53125 C 1.671875 -26.550781 1.75 -27.582031 1.90625 -28.625 C 2.070312 -29.675781 2.25 -30.484375 2.4375 -31.046875 C 2.90625 -32.484375 3.367188 -33.738281 3.828125 -34.8125 C 4.296875 -35.882812 5 -37.046875 5.9375 -38.296875 C 6.445312 -39.046875 7.363281 -39.847656 8.6875 -40.703125 C 10.007812 -41.566406 11.507812 -42.3125 13.1875 -42.9375 C 14.863281 -43.5625 16.488281 -43.875 18.0625 -43.875 C 18.0625 -43.875 18.582031 -43.875 19.625 -43.875 C 20.675781 -43.875 22.039062 -43.875 23.71875 -43.875 C 25.394531 -43.875 27.160156 -43.875 29.015625 -43.875 C 30.878906 -43.875 32.648438 -43.875 34.328125 -43.875 C 36.003906 -43.875 37.363281 -43.875 38.40625 -43.875 C 39.445312 -43.875 39.96875 -43.875 39.96875 -43.875 C 40.394531 -43.875 40.609375 -43.664062 40.609375 -43.25 C 40.609375 -43.25 40.609375 -42.664062 40.609375 -41.5 C 40.609375 -40.34375 40.59375 -38.890625 40.5625 -37.140625 C 40.539062 -35.398438 40.519531 -33.625 40.5 -31.8125 C 40.476562 -30 40.46875 -28.441406 40.46875 -27.140625 C 40.46875 -26.722656 40.257812 -26.535156 39.84375 -26.578125 C 39.320312 -26.578125 38.46875 -26.585938 37.28125 -26.609375 C 36.101562 -26.640625 34.769531 -26.675781 33.28125 -26.71875 C 31.789062 -26.769531 30.300781 -26.804688 28.8125 -26.828125 C 27.320312 -26.847656 26.03125 -26.859375 24.9375 -26.859375 C 23.84375 -26.859375 23.085938 -26.859375 22.671875 -26.859375 C 22.160156 -26.816406 21.566406 -26.78125 20.890625 -26.75 C 20.222656 -26.726562 19.582031 -26.507812 18.96875 -26.09375 C 18.363281 -25.675781 17.945312 -24.863281 17.71875 -23.65625 C 17.582031 -22.8125 17.5 -21.804688 17.46875 -20.640625 C 17.445312 -19.484375 17.4375 -18.601562 17.4375 -18 C 17.34375 -16.601562 17.703125 -15.484375 18.515625 -14.640625 C 19.335938 -13.804688 20.722656 -13.390625 22.671875 -13.390625 C 23.835938 -13.390625 24.507812 -13.578125 24.6875 -13.953125 C 24.875 -14.328125 24.945312 -15.09375 24.90625 -16.25 C 24.863281 -16.90625 24.875 -17.882812 24.9375 -19.1875 C 25.007812 -20.488281 25.046875 -21.507812 25.046875 -22.25 C 25.085938 -22.394531 25.164062 -22.59375 25.28125 -22.84375 C 25.40625 -23.101562 25.742188 -23.234375 26.296875 -23.234375 C 26.347656 -23.234375 26.835938 -23.234375 27.765625 -23.234375 C 28.691406 -23.234375 29.804688 -23.234375 31.109375 -23.234375 C 32.410156 -23.234375 33.710938 -23.21875 35.015625 -23.1875 C 36.316406 -23.164062 37.421875 -23.15625 38.328125 -23.15625 C 39.242188 -23.15625 39.722656 -23.179688 39.765625 -23.234375 C 40.179688 -23.234375 40.390625 -23.023438 40.390625 -22.609375 C 40.390625 -22.140625 40.390625 -21.660156 40.390625 -21.171875 C 40.390625 -20.679688 40.367188 -20.207031 40.328125 -19.75 C 40.328125 -18.539062 40.3125 -17.515625 40.28125 -16.671875 C 40.257812 -15.835938 40.238281 -15 40.21875 -14.15625 C 40.195312 -13.320312 40.1875 -12.300781 40.1875 -11.09375 Z M 40.1875 -11.09375 "/></g></g></g><path stroke-linecap="butt" transform="matrix(1.166027, 0, 0, 1.166027, 16.30637, 233.024325)" fill="none" stroke-linejoin="miter" d="M 27.810693 13.128095 C 27.194283 13.128095 26.648224 13.051043 26.169167 12.900291 C 25.686759 12.749539 25.288103 12.548535 24.969848 12.300632 C 24.648243 12.056078 24.403689 11.784724 24.232837 11.486569 L 25.197652 10.3107 L 25.351754 10.3107 C 25.619758 10.706007 25.958114 11.020912 26.36682 11.255415 C 26.778877 11.489919 27.261284 11.610521 27.810693 11.610521 C 28.2797 11.610521 28.634806 11.510019 28.872659 11.312366 C 29.113863 11.111363 29.231115 10.840009 29.231115 10.491603 C 29.231115 10.28055 29.194264 10.102997 29.117213 9.962295 C 29.040162 9.821593 28.91286 9.700991 28.735307 9.597139 C 28.557754 9.496638 28.316551 9.409536 28.011696 9.335835 L 26.869328 9.074531 C 26.072015 8.893628 25.479056 8.592124 25.0871 8.166667 C 24.695144 7.74456 24.500841 7.195152 24.500841 6.518441 C 24.500841 6.015933 24.624793 5.573726 24.876047 5.19517 C 25.127301 4.813264 25.492456 4.51846 25.974864 4.307407 C 26.453921 4.096353 27.02678 3.992502 27.696791 3.992502 C 28.380202 3.992502 28.966461 4.082953 29.455568 4.263856 C 29.941326 4.441409 30.353382 4.719463 30.691738 5.091319 L 29.820724 6.280587 L 29.669972 6.280587 C 29.418718 6.019283 29.130613 5.82163 28.805658 5.690978 C 28.484053 5.556976 28.112197 5.493325 27.696791 5.493325 C 27.214383 5.493325 26.845878 5.577076 26.594624 5.747929 C 26.34672 5.918782 26.219418 6.153285 26.219418 6.45144 C 26.219418 6.732844 26.306519 6.953948 26.484072 7.121451 C 26.661625 7.285603 26.963129 7.416255 27.398636 7.510057 L 28.564454 7.75126 C 29.425418 7.935513 30.051878 8.243718 30.440484 8.679225 C 30.82909 9.114732 31.023393 9.680891 31.023393 10.381052 C 31.023393 10.93716 30.906141 11.419568 30.664937 11.831624 C 30.427084 12.240331 30.065278 12.561936 29.58622 12.786389 C 29.103813 13.014193 28.510854 13.128095 27.810693 13.128095 Z M 40.574392 13.000793 L 38.818965 13.000793 L 38.818965 4.119804 L 40.574392 4.119804 Z M 50.65805 13.000793 L 49.046675 13.000793 L 49.046675 4.119804 L 51.341461 4.119804 L 53.589346 10.649056 L 53.716648 10.649056 L 55.954483 4.119804 L 58.195668 4.119804 L 58.195668 13.000793 L 56.530692 13.000793 L 56.530692 7.131501 L 56.37994 7.10805 L 54.326358 13.000793 L 52.862385 13.000793 L 50.808802 7.10805 L 50.65805 7.131501 Z M 70.098404 4.119804 C 70.734914 4.119804 71.277623 4.237055 71.72988 4.468209 C 72.182137 4.702713 72.523842 5.027668 72.754996 5.446424 C 72.982799 5.865181 73.100051 6.354289 73.100051 6.907047 C 73.100051 7.463156 72.982799 7.948914 72.754996 8.36432 C 72.523842 8.783077 72.182137 9.108032 71.72988 9.339185 C 71.277623 9.573689 70.734914 9.690941 70.098404 9.690941 L 68.423378 9.690941 L 68.423378 13.000793 L 66.667951 13.000793 L 66.667951 4.119804 Z M 69.867251 8.297319 C 70.845466 8.297319 71.331224 7.835012 71.331224 6.907047 C 71.331224 5.975733 70.845466 5.510075 69.867251 5.510075 L 68.423378 5.510075 L 68.423378 8.297319 Z M 82.697951 4.119804 L 82.697951 11.53012 L 86.687864 11.53012 L 86.687864 13.000793 L 80.942524 13.000793 L 80.942524 4.119804 Z M 96.04791 13.000793 L 94.292483 13.000793 L 94.292483 4.119804 L 96.04791 4.119804 Z M 110.151631 4.119804 L 110.151631 5.590477 L 106.27562 5.590477 L 106.27562 7.938863 L 109.793175 7.938863 L 109.793175 9.392786 L 106.27562 9.392786 L 106.27562 13.000793 L 104.520193 13.000793 L 104.520193 4.119804 Z M 119.615529 13.000793 L 117.860102 13.000793 L 117.860102 4.119804 L 119.615529 4.119804 Z M 131.78962 13.128095 C 130.972207 13.128095 130.251946 12.957242 129.625486 12.618887 C 129.002376 12.277181 128.516618 11.764623 128.161513 11.084563 C 127.809757 10.401152 127.635555 9.560289 127.635555 8.558623 C 127.635555 7.560307 127.809757 6.719444 128.161513 6.036034 C 128.516618 5.352623 129.002376 4.843415 129.625486 4.50171 C 130.251946 4.163354 130.972207 3.992502 131.78962 3.992502 C 132.643883 3.992502 133.370844 4.160004 133.967154 4.491659 C 134.563463 4.826665 134.98892 5.335873 135.246874 6.019283 L 133.963804 6.803196 L 133.813051 6.799846 C 133.622098 6.337538 133.364144 6.005883 133.035839 5.80488 C 132.710884 5.603877 132.295477 5.503375 131.78962 5.503375 C 131.052608 5.503375 130.476399 5.747929 130.064343 6.237037 C 129.652286 6.722794 129.444583 7.500006 129.444583 8.558623 C 129.444583 9.61724 129.652286 10.387752 130.064343 10.876859 C 130.476399 11.365967 131.052608 11.610521 131.78962 11.610521 C 132.942038 11.610521 133.648899 11.047712 133.910203 9.925444 L 134.060955 9.925444 L 135.354075 10.602155 C 135.112872 11.443018 134.697465 12.076178 134.111206 12.494935 C 133.521597 12.917041 132.747735 13.128095 131.78962 13.128095 Z M 150.32881 13.000793 L 148.479581 13.000793 L 147.81292 10.953911 L 144.412617 10.953911 L 143.742607 13.000793 L 141.940278 13.000793 L 145.005576 4.119804 L 147.260162 4.119804 Z M 146.027342 5.972383 L 144.884974 9.476537 L 147.327163 9.476537 L 146.178095 5.972383 Z M 168.623446 9.101332 L 168.623446 11.53012 L 172.864612 11.53012 L 172.864612 13.000793 L 166.868018 13.000793 L 166.868018 4.119804 L 172.767461 4.119804 L 172.767461 5.590477 L 168.623446 5.590477 L 168.623446 7.667509 L 172.244853 7.667509 L 172.244853 9.101332 Z M 182.418962 4.119804 L 182.418962 11.53012 L 186.408874 11.53012 L 186.408874 13.000793 L 180.663534 13.000793 L 180.663534 4.119804 Z M 205.061966 13.128095 C 204.308204 13.128095 203.685094 12.984042 203.185937 12.699288 C 202.686779 12.414533 202.324973 12.029277 202.09717 11.54687 L 203.088785 10.344201 L 203.239538 10.344201 C 203.40369 10.732807 203.631494 11.041012 203.929648 11.265465 C 204.227803 11.489919 204.572858 11.603821 204.964815 11.603821 C 205.407021 11.603821 205.735327 11.473169 205.94973 11.218565 C 206.164133 10.960611 206.271335 10.541854 206.271335 9.962295 L 206.271335 4.119804 L 208.020062 4.119804 L 208.020062 9.992445 C 208.020062 11.067812 207.775508 11.858425 207.289751 12.364283 C 206.800643 12.873491 206.060282 13.128095 205.061966 13.128095 Z M 219.98645 13.128095 C 218.76368 13.128095 217.855816 12.83664 217.266207 12.257081 C 216.673248 11.674172 216.378443 10.813208 216.378443 9.67084 L 216.378443 4.119804 L 218.09702 4.119804 L 218.09702 9.66079 C 218.09702 10.30735 218.254472 10.793108 218.566027 11.118063 C 218.877582 11.439668 219.34994 11.603821 219.98645 11.603821 C 221.246069 11.603821 221.875879 10.953911 221.875879 9.66079 L 221.875879 4.119804 L 223.594456 4.119804 L 223.594456 9.67084 C 223.594456 10.813208 223.299651 11.674172 222.706692 12.257081 C 222.117083 12.83664 221.209219 13.128095 219.98645 13.128095 Z M 233.761865 9.101332 L 233.761865 11.53012 L 238.003031 11.53012 L 238.003031 13.000793 L 232.006438 13.000793 L 232.006438 4.119804 L 237.90588 4.119804 L 237.90588 5.590477 L 233.761865 5.590477 L 233.761865 7.667509 L 237.383272 7.667509 L 237.383272 9.101332 Z M 248.961053 13.128095 C 248.220691 13.128095 247.577481 12.957242 247.038123 12.618887 C 246.498764 12.283881 246.080008 11.771323 245.785203 11.091263 C 245.493749 10.407852 245.346346 9.563639 245.346346 8.558623 C 245.346346 7.546907 245.520549 6.699344 245.875655 6.019283 C 246.22741 5.335873 246.716518 4.826665 247.342978 4.491659 C 247.966087 4.160004 248.693049 3.992502 249.520512 3.992502 C 250.368075 3.992502 251.095036 4.149954 251.694696 4.464859 C 252.294355 4.783114 252.713112 5.252121 252.957665 5.875231 L 251.674595 6.652443 L 251.523843 6.645743 C 251.34294 6.250437 251.084986 5.958982 250.756681 5.77808 C 250.425026 5.597177 250.012969 5.503375 249.520512 5.503375 C 248.75335 5.503375 248.16709 5.747929 247.765084 6.230337 C 247.359728 6.712744 247.155375 7.489956 247.155375 8.558623 C 247.155375 9.63399 247.346328 10.411202 247.724884 10.89696 C 248.103439 11.382717 248.662898 11.627271 249.40326 11.627271 C 250.04312 11.627271 250.515477 11.483219 250.820332 11.195114 C 251.121837 10.90701 251.275939 10.478203 251.275939 9.908694 L 251.275939 9.526788 L 249.172106 9.526788 L 249.172106 8.099666 L 253.017966 8.099666 L 253.017966 13.000793 L 251.34294 13.000793 L 251.34294 11.808174 L 251.212288 11.791424 C 251.031385 12.21688 250.756681 12.545185 250.384825 12.779689 C 250.012969 13.010843 249.540612 13.128095 248.961053 13.128095 Z M 264.910652 13.128095 C 264.09659 13.128095 263.379679 12.960592 262.756569 12.628937 C 262.136809 12.297282 261.647701 11.791424 261.295946 11.108013 C 260.94419 10.424602 260.766638 9.577039 260.766638 8.558623 C 260.766638 7.543557 260.94419 6.692644 261.295946 6.012583 C 261.647701 5.329173 262.136809 4.823315 262.756569 4.491659 C 263.379679 4.156654 264.09659 3.992502 264.910652 3.992502 C 265.724715 3.992502 266.441626 4.156654 267.061386 4.488309 C 267.681146 4.816615 268.166903 5.325822 268.515309 6.009233 C 268.867064 6.692644 269.041267 7.543557 269.041267 8.558623 C 269.041267 9.577039 268.867064 10.427952 268.515309 11.111363 C 268.166903 11.794774 267.681146 12.303982 267.061386 12.632287 C 266.441626 12.963942 265.724715 13.128095 264.910652 13.128095 Z M 264.910652 11.603821 C 265.664414 11.603821 266.237273 11.362617 266.635929 10.876859 C 267.031236 10.394452 267.232239 9.62059 267.232239 8.558623 C 267.232239 7.500006 267.031236 6.726144 266.635929 6.240387 C 266.237273 5.754629 265.664414 5.510075 264.910652 5.510075 C 264.153541 5.510075 263.573982 5.754629 263.175325 6.240387 C 262.776669 6.726144 262.579016 7.500006 262.579016 8.558623 C 262.579016 9.62059 262.776669 10.394452 263.175325 10.876859 C 263.573982 11.362617 264.153541 11.603821 264.910652 11.603821 Z M 264.910652 11.603821 " stroke="#222222" stroke-width="0.435596" stroke-opacity="1" stroke-miterlimit="4"/><g fill="#ffffff" fill-opacity="1"><g transform="translate(44.145253, 248.18267)"><g><path d="M 4.59375 0.15625 C 3.875 0.15625 3.234375 0.0664062 2.671875 -0.109375 C 2.109375 -0.285156 1.640625 -0.519531 1.265625 -0.8125 C 0.898438 -1.101562 0.617188 -1.421875 0.421875 -1.765625 L 1.546875 -3.140625 L 1.71875 -3.140625 C 2.03125 -2.671875 2.425781 -2.300781 2.90625 -2.03125 C 3.382812 -1.757812 3.945312 -1.625 4.59375 -1.625 C 5.132812 -1.625 5.546875 -1.738281 5.828125 -1.96875 C 6.109375 -2.195312 6.25 -2.515625 6.25 -2.921875 C 6.25 -3.171875 6.203125 -3.375 6.109375 -3.53125 C 6.015625 -3.695312 5.863281 -3.835938 5.65625 -3.953125 C 5.457031 -4.078125 5.179688 -4.179688 4.828125 -4.265625 L 3.484375 -4.578125 C 2.554688 -4.785156 1.863281 -5.132812 1.40625 -5.625 C 0.957031 -6.125 0.734375 -6.765625 0.734375 -7.546875 C 0.734375 -8.140625 0.878906 -8.65625 1.171875 -9.09375 C 1.460938 -9.539062 1.882812 -9.882812 2.4375 -10.125 C 3 -10.375 3.671875 -10.5 4.453125 -10.5 C 5.253906 -10.5 5.9375 -10.394531 6.5 -10.1875 C 7.070312 -9.976562 7.550781 -9.65625 7.9375 -9.21875 L 6.9375 -7.828125 L 6.75 -7.828125 C 6.457031 -8.140625 6.125 -8.367188 5.75 -8.515625 C 5.375 -8.671875 4.941406 -8.75 4.453125 -8.75 C 3.890625 -8.75 3.460938 -8.648438 3.171875 -8.453125 C 2.878906 -8.253906 2.734375 -7.976562 2.734375 -7.625 C 2.734375 -7.300781 2.832031 -7.039062 3.03125 -6.84375 C 3.238281 -6.65625 3.597656 -6.507812 4.109375 -6.40625 L 5.46875 -6.125 C 6.46875 -5.90625 7.191406 -5.539062 7.640625 -5.03125 C 8.097656 -4.53125 8.328125 -3.867188 8.328125 -3.046875 C 8.328125 -2.398438 8.1875 -1.835938 7.90625 -1.359375 C 7.632812 -0.878906 7.21875 -0.503906 6.65625 -0.234375 C 6.09375 0.0234375 5.40625 0.15625 4.59375 0.15625 Z M 4.59375 0.15625 "/></g></g></g><g fill="#ffffff" fill-opacity="1"><g transform="translate(60.222727, 248.18267)"><g><path d="M 3.390625 0 L 1.34375 0 L 1.34375 -10.34375 L 3.390625 -10.34375 Z M 3.390625 0 "/></g></g></g><g fill="#ffffff" fill-opacity="1"><g transform="translate(72.150573, 248.18267)"><g><path d="M 3.21875 0 L 1.34375 0 L 1.34375 -10.34375 L 4.015625 -10.34375 L 6.640625 -2.734375 L 6.796875 -2.734375 L 9.390625 -10.34375 L 12.015625 -10.34375 L 12.015625 0 L 10.0625 0 L 10.0625 -6.84375 L 9.890625 -6.875 L 7.5 0 L 5.796875 0 L 3.40625 -6.875 L 3.21875 -6.84375 Z M 3.21875 0 "/></g></g></g><g fill="#ffffff" fill-opacity="1"><g transform="translate(92.696332, 248.18267)"><g><path d="M 5.34375 -10.34375 C 6.082031 -10.34375 6.710938 -10.207031 7.234375 -9.9375 C 7.765625 -9.664062 8.164062 -9.285156 8.4375 -8.796875 C 8.707031 -8.316406 8.84375 -7.75 8.84375 -7.09375 C 8.84375 -6.445312 8.707031 -5.878906 8.4375 -5.390625 C 8.164062 -4.910156 7.765625 -4.535156 7.234375 -4.265625 C 6.710938 -3.992188 6.082031 -3.859375 5.34375 -3.859375 L 3.390625 -3.859375 L 3.390625 0 L 1.34375 0 L 1.34375 -10.34375 Z M 5.078125 -5.484375 C 6.210938 -5.484375 6.78125 -6.019531 6.78125 -7.09375 C 6.78125 -8.1875 6.210938 -8.734375 5.078125 -8.734375 L 3.390625 -8.734375 L 3.390625 -5.484375 Z M 5.078125 -5.484375 "/></g></g></g><g fill="#ffffff" fill-opacity="1"><g transform="translate(109.340309, 248.18267)"><g><path d="M 3.390625 -10.34375 L 3.390625 -1.71875 L 8.046875 -1.71875 L 8.046875 0 L 1.34375 0 L 1.34375 -10.34375 Z M 3.390625 -10.34375 "/></g></g></g><g fill="#ffffff" fill-opacity="1"><g transform="translate(124.907927, 248.18267)"><g><path d="M 3.390625 0 L 1.34375 0 L 1.34375 -10.34375 L 3.390625 -10.34375 Z M 3.390625 0 "/></g></g></g><g fill="#ffffff" fill-opacity="1"><g transform="translate(136.835768, 248.18267)"><g><path d="M 7.90625 -10.34375 L 7.90625 -8.640625 L 3.390625 -8.640625 L 3.390625 -5.890625 L 7.484375 -5.890625 L 7.484375 -4.203125 L 3.390625 -4.203125 L 3.390625 0 L 1.34375 0 L 1.34375 -10.34375 Z M 7.90625 -10.34375 "/></g></g></g><g fill="#ffffff" fill-opacity="1"><g transform="translate(152.389223, 248.18267)"><g><path d="M 3.390625 0 L 1.34375 0 L 1.34375 -10.34375 L 3.390625 -10.34375 Z M 3.390625 0 "/></g></g></g><g fill="#ffffff" fill-opacity="1"><g transform="translate(164.317065, 248.18267)"><g><path d="M 5.65625 0.15625 C 4.707031 0.15625 3.867188 -0.0390625 3.140625 -0.4375 C 2.410156 -0.84375 1.835938 -1.441406 1.421875 -2.234375 C 1.015625 -3.023438 0.8125 -4.003906 0.8125 -5.171875 C 0.8125 -6.335938 1.015625 -7.316406 1.421875 -8.109375 C 1.835938 -8.910156 2.410156 -9.507812 3.140625 -9.90625 C 3.867188 -10.300781 4.707031 -10.5 5.65625 -10.5 C 6.65625 -10.5 7.5 -10.300781 8.1875 -9.90625 C 8.882812 -9.519531 9.382812 -8.929688 9.6875 -8.140625 L 8.1875 -7.21875 L 8.015625 -7.234375 C 7.796875 -7.765625 7.492188 -8.144531 7.109375 -8.375 C 6.734375 -8.613281 6.25 -8.734375 5.65625 -8.734375 C 4.800781 -8.734375 4.128906 -8.445312 3.640625 -7.875 C 3.160156 -7.3125 2.921875 -6.410156 2.921875 -5.171875 C 2.921875 -3.941406 3.160156 -3.039062 3.640625 -2.46875 C 4.128906 -1.90625 4.800781 -1.625 5.65625 -1.625 C 7 -1.625 7.820312 -2.273438 8.125 -3.578125 L 8.3125 -3.578125 L 9.8125 -2.796875 C 9.53125 -1.816406 9.046875 -1.078125 8.359375 -0.578125 C 7.671875 -0.0859375 6.769531 0.15625 5.65625 0.15625 Z M 5.65625 0.15625 "/></g></g></g><g fill="#ffffff" fill-opacity="1"><g transform="translate(181.655002, 248.18267)"><g><path d="M 9.9375 0 L 7.78125 0 L 7 -2.390625 L 3.03125 -2.390625 L 2.265625 0 L 0.15625 0 L 3.734375 -10.34375 L 6.359375 -10.34375 Z M 4.921875 -8.1875 L 3.59375 -4.109375 L 6.4375 -4.109375 L 5.09375 -8.1875 Z M 4.921875 -8.1875 "/></g></g></g><g fill="#ffffff" fill-opacity="1"><g transform="translate(198.929207, 248.18267)"><g/></g></g><g fill="#ffffff" fill-opacity="1"><g transform="translate(209.53285, 248.18267)"><g><path d="M 3.390625 -4.546875 L 3.390625 -1.71875 L 8.328125 -1.71875 L 8.328125 0 L 1.34375 0 L 1.34375 -10.34375 L 8.21875 -10.34375 L 8.21875 -8.640625 L 3.390625 -8.640625 L 3.390625 -6.21875 L 7.609375 -6.21875 L 7.609375 -4.546875 Z M 3.390625 -4.546875 "/></g></g></g><g fill="#ffffff" fill-opacity="1"><g transform="translate(225.617401, 248.18267)"><g><path d="M 3.390625 -10.34375 L 3.390625 -1.71875 L 8.046875 -1.71875 L 8.046875 0 L 1.34375 0 L 1.34375 -10.34375 Z M 3.390625 -10.34375 "/></g></g></g><g fill="#ffffff" fill-opacity="1"><g transform="translate(241.185019, 248.18267)"><g/></g></g><g fill="#ffffff" fill-opacity="1"><g transform="translate(251.788662, 248.18267)"><g><path d="M 3.625 0.15625 C 2.75 0.15625 2.019531 -0.0078125 1.4375 -0.34375 C 0.851562 -0.675781 0.429688 -1.125 0.171875 -1.6875 L 1.328125 -3.09375 L 1.5 -3.09375 C 1.6875 -2.644531 1.953125 -2.285156 2.296875 -2.015625 C 2.648438 -1.753906 3.054688 -1.625 3.515625 -1.625 C 4.023438 -1.625 4.40625 -1.773438 4.65625 -2.078125 C 4.90625 -2.378906 5.03125 -2.867188 5.03125 -3.546875 L 5.03125 -10.34375 L 7.078125 -10.34375 L 7.078125 -3.5 C 7.078125 -2.25 6.789062 -1.328125 6.21875 -0.734375 C 5.644531 -0.140625 4.78125 0.15625 3.625 0.15625 Z M 3.625 0.15625 "/></g></g></g><g fill="#ffffff" fill-opacity="1"><g transform="translate(267.327954, 248.18267)"><g><path d="M 5.484375 0.15625 C 4.054688 0.15625 3 -0.179688 2.3125 -0.859375 C 1.625 -1.546875 1.28125 -2.550781 1.28125 -3.875 L 1.28125 -10.34375 L 3.28125 -10.34375 L 3.28125 -3.890625 C 3.28125 -3.140625 3.460938 -2.570312 3.828125 -2.1875 C 4.191406 -1.8125 4.742188 -1.625 5.484375 -1.625 C 6.953125 -1.625 7.6875 -2.378906 7.6875 -3.890625 L 7.6875 -10.34375 L 9.6875 -10.34375 L 9.6875 -3.875 C 9.6875 -2.550781 9.34375 -1.546875 8.65625 -0.859375 C 7.96875 -0.179688 6.910156 0.15625 5.484375 0.15625 Z M 5.484375 0.15625 "/></g></g></g><g fill="#ffffff" fill-opacity="1"><g transform="translate(285.487319, 248.18267)"><g><path d="M 3.390625 -4.546875 L 3.390625 -1.71875 L 8.328125 -1.71875 L 8.328125 0 L 1.34375 0 L 1.34375 -10.34375 L 8.21875 -10.34375 L 8.21875 -8.640625 L 3.390625 -8.640625 L 3.390625 -6.21875 L 7.609375 -6.21875 L 7.609375 -4.546875 Z M 3.390625 -4.546875 "/></g></g></g><g fill="#ffffff" fill-opacity="1"><g transform="translate(301.57187, 248.18267)"><g><path d="M 5.03125 0.15625 C 4.164062 0.15625 3.414062 -0.0390625 2.78125 -0.4375 C 2.15625 -0.832031 1.671875 -1.425781 1.328125 -2.21875 C 0.984375 -3.019531 0.8125 -4.003906 0.8125 -5.171875 C 0.8125 -6.359375 1.015625 -7.347656 1.421875 -8.140625 C 1.835938 -8.929688 2.410156 -9.519531 3.140625 -9.90625 C 3.867188 -10.300781 4.710938 -10.5 5.671875 -10.5 C 6.671875 -10.5 7.519531 -10.3125 8.21875 -9.9375 C 8.914062 -9.570312 9.40625 -9.03125 9.6875 -8.3125 L 8.1875 -7.40625 L 8.015625 -7.40625 C 7.804688 -7.863281 7.507812 -8.195312 7.125 -8.40625 C 6.738281 -8.625 6.253906 -8.734375 5.671875 -8.734375 C 4.785156 -8.734375 4.101562 -8.453125 3.625 -7.890625 C 3.15625 -7.328125 2.921875 -6.421875 2.921875 -5.171875 C 2.921875 -3.921875 3.140625 -3.007812 3.578125 -2.4375 C 4.023438 -1.875 4.679688 -1.59375 5.546875 -1.59375 C 6.285156 -1.59375 6.832031 -1.757812 7.1875 -2.09375 C 7.539062 -2.4375 7.71875 -2.941406 7.71875 -3.609375 L 7.71875 -4.046875 L 5.28125 -4.046875 L 5.28125 -5.71875 L 9.75 -5.71875 L 9.75 0 L 7.796875 0 L 7.796875 -1.390625 L 7.65625 -1.40625 C 7.4375 -0.914062 7.113281 -0.53125 6.6875 -0.25 C 6.257812 0.0195312 5.707031 0.15625 5.03125 0.15625 Z M 5.03125 0.15625 "/></g></g></g><g fill="#ffffff" fill-opacity="1"><g transform="translate(319.554204, 248.18267)"><g><path d="M 5.640625 0.15625 C 4.691406 0.15625 3.851562 -0.0351562 3.125 -0.421875 C 2.40625 -0.816406 1.835938 -1.410156 1.421875 -2.203125 C 1.015625 -3.003906 0.8125 -3.992188 0.8125 -5.171875 C 0.8125 -6.359375 1.015625 -7.347656 1.421875 -8.140625 C 1.835938 -8.941406 2.40625 -9.535156 3.125 -9.921875 C 3.851562 -10.304688 4.691406 -10.5 5.640625 -10.5 C 6.585938 -10.5 7.421875 -10.304688 8.140625 -9.921875 C 8.867188 -9.535156 9.4375 -8.941406 9.84375 -8.140625 C 10.25 -7.347656 10.453125 -6.359375 10.453125 -5.171875 C 10.453125 -3.992188 10.25 -3.003906 9.84375 -2.203125 C 9.4375 -1.398438 8.867188 -0.804688 8.140625 -0.421875 C 7.421875 -0.0351562 6.585938 0.15625 5.640625 0.15625 Z M 5.640625 -1.625 C 6.515625 -1.625 7.179688 -1.90625 7.640625 -2.46875 C 8.109375 -3.039062 8.34375 -3.941406 8.34375 -5.171875 C 8.34375 -6.410156 8.109375 -7.3125 7.640625 -7.875 C 7.179688 -8.445312 6.515625 -8.734375 5.640625 -8.734375 C 4.753906 -8.734375 4.078125 -8.445312 3.609375 -7.875 C 3.148438 -7.3125 2.921875 -6.410156 2.921875 -5.171875 C 2.921875 -3.941406 3.148438 -3.039062 3.609375 -2.46875 C 4.078125 -1.90625 4.753906 -1.625 5.640625 -1.625 Z M 5.640625 -1.625 "/></g></g></g><path stroke-linecap="butt" transform="matrix(0.552151, 0, 0, 0.552151, 242.969096, 160.706166)" fill="none" stroke-linejoin="miter" d="M 75.761266 86.955476 C 75.761266 87.563891 75.782489 88.518962 75.824937 89.820689 C 75.867385 91.101191 75.902758 92.459514 75.945205 93.888584 C 76.008877 95.296429 76.065473 96.51326 76.107921 97.539077 C 76.150369 98.571969 76.171592 99.088415 76.171592 99.088415 C 76.171592 99.69683 75.902758 100.001038 75.379237 100.001038 L 4.251208 100.001038 C 3.833807 100.001038 3.621569 99.69683 3.621569 99.088415 L 3.621569 97.036781 C 3.621569 96.951885 3.621569 96.909438 3.621569 96.909438 C 3.621569 96.746722 3.621569 96.562782 3.621569 96.378843 L 3.621569 56.103145 C 3.621569 52.763934 3.621569 49.410573 3.621569 46.050138 C 3.621569 42.689703 3.706464 39.322194 3.876255 35.961759 C 3.876255 32.962128 3.833807 29.997871 3.748912 27.076061 C 3.748912 25.774335 3.727688 24.52213 3.68524 23.326523 C 3.642793 22.130916 3.664017 20.878711 3.748912 19.576985 C 3.833807 19.074688 4.088493 18.820003 4.505894 18.820003 L 40.777368 18.820003 C 41.223068 18.820003 41.442381 19.117136 41.442381 19.704328 C 41.442381 22.456347 41.527276 25.187143 41.689992 27.896715 C 41.859782 30.606286 41.987125 33.337082 42.07202 36.089101 C 42.156915 37.900199 42.199363 39.682998 42.199363 41.444574 C 42.199363 43.213224 42.199363 44.953575 42.199363 46.679778 C 42.284258 47.896609 42.284258 49.65111 42.199363 51.94328 C 42.114468 54.207152 42.029573 56.428576 41.944677 58.593404 C 41.859782 60.737008 41.859782 62.144853 41.944677 62.81694 C 41.944677 63.948876 41.944677 65.116185 41.944677 66.311793 C 41.944677 67.5074 42.248885 68.497844 42.857301 69.27605 C 43.196882 69.799571 44.180251 70.146226 45.821558 70.316016 C 47.462865 70.478732 49.181993 70.563627 50.986016 70.563627 C 52.797114 70.563627 54.127139 70.563627 54.99024 70.563627 C 55.853341 70.563627 57.183366 70.542404 58.994464 70.499956 C 60.798487 70.464583 62.751076 70.400912 64.852232 70.316016 C 66.974612 70.231121 69.005023 70.146226 70.936388 70.061331 C 72.867754 69.976436 74.395868 69.933988 75.50658 69.933988 C 75.945205 70.018883 76.129145 70.273569 76.04425 70.69097 C 76.04425 70.860761 76.04425 71.511624 76.04425 72.64356 C 76.04425 73.761347 76.008877 74.928656 75.945205 76.145487 C 75.902758 77.341094 75.881534 78.232494 75.881534 78.819686 C 75.803713 80.206307 75.761266 81.592929 75.761266 82.97955 C 75.761266 84.344948 75.761266 85.674973 75.761266 86.955476 Z M 75.761266 86.955476 " stroke="#000000" stroke-width="9.681525" stroke-opacity="1" stroke-miterlimit="4"/><g fill="#ffffff" fill-opacity="1"><g transform="translate(242.969096, 215.921302)"><g><path d="M 41.828125 -7.203125 C 41.828125 -6.867188 41.835938 -6.34375 41.859375 -5.625 C 41.890625 -4.914062 41.914062 -4.164062 41.9375 -3.375 C 41.957031 -2.59375 41.976562 -1.914062 42 -1.34375 C 42.03125 -0.78125 42.046875 -0.5 42.046875 -0.5 C 42.046875 -0.164062 41.90625 0 41.625 0 L 2.359375 0 C 2.117188 0 2 -0.164062 2 -0.5 L 2 -1.640625 C 2 -1.679688 2 -1.703125 2 -1.703125 C 2 -1.804688 2 -1.90625 2 -2 L 2 -24.234375 C 2 -26.085938 2 -27.9375 2 -29.78125 C 2 -31.632812 2.046875 -33.488281 2.140625 -35.34375 C 2.140625 -37.007812 2.113281 -38.648438 2.0625 -40.265625 C 2.0625 -40.972656 2.050781 -41.660156 2.03125 -42.328125 C 2.007812 -42.992188 2.019531 -43.6875 2.0625 -44.40625 C 2.113281 -44.6875 2.257812 -44.828125 2.5 -44.828125 L 22.515625 -44.828125 C 22.753906 -44.828125 22.875 -44.660156 22.875 -44.328125 C 22.875 -42.804688 22.921875 -41.296875 23.015625 -39.796875 C 23.109375 -38.304688 23.179688 -36.800781 23.234375 -35.28125 C 23.273438 -34.28125 23.296875 -33.289062 23.296875 -32.3125 C 23.296875 -31.34375 23.296875 -30.382812 23.296875 -29.4375 C 23.347656 -28.769531 23.347656 -27.804688 23.296875 -26.546875 C 23.253906 -25.285156 23.207031 -24.0625 23.15625 -22.875 C 23.113281 -21.6875 23.113281 -20.90625 23.15625 -20.53125 C 23.15625 -19.90625 23.15625 -19.257812 23.15625 -18.59375 C 23.15625 -17.9375 23.320312 -17.394531 23.65625 -16.96875 C 23.84375 -16.675781 24.390625 -16.484375 25.296875 -16.390625 C 26.203125 -16.296875 27.148438 -16.25 28.140625 -16.25 C 29.140625 -16.25 29.878906 -16.25 30.359375 -16.25 C 30.835938 -16.25 31.570312 -16.257812 32.5625 -16.28125 C 33.5625 -16.300781 34.644531 -16.335938 35.8125 -16.390625 C 36.976562 -16.441406 38.09375 -16.488281 39.15625 -16.53125 C 40.226562 -16.582031 41.070312 -16.609375 41.6875 -16.609375 C 41.925781 -16.554688 42.019531 -16.410156 41.96875 -16.171875 C 41.96875 -16.078125 41.96875 -15.722656 41.96875 -15.109375 C 41.96875 -14.492188 41.957031 -13.851562 41.9375 -13.1875 C 41.914062 -12.519531 41.90625 -12.019531 41.90625 -11.6875 C 41.851562 -10.925781 41.828125 -10.164062 41.828125 -9.40625 C 41.828125 -8.644531 41.828125 -7.910156 41.828125 -7.203125 Z M 41.828125 -7.203125 "/></g></g></g><path stroke-linecap="butt" transform="matrix(0.540469, 0, 0, 0.540469, 278.489986, 161.424642)" fill="none" stroke-linejoin="miter" d="M 77.967346 100.002093 L 35.895944 100.002093 C 35.534568 100.002093 35.361107 99.792495 35.361107 99.373299 C 35.44061 97.732651 35.606843 95.513802 35.859806 92.716751 C 36.134452 89.905246 36.416326 87.079285 36.712654 84.246096 C 37.030665 81.405681 37.269173 79.208514 37.435406 77.654597 C 37.522136 77.488364 37.688369 77.365496 37.941333 77.278766 C 38.215978 77.192036 38.432804 77.155898 38.606264 77.155898 C 38.772497 77.235401 39.285651 77.278766 40.145727 77.278766 C 41.013029 77.278766 41.894787 77.278766 42.798227 77.278766 C 43.701667 77.278766 44.279869 77.278766 44.525604 77.278766 C 44.525604 77.278766 44.894208 77.112533 45.631415 76.772839 C 46.368622 76.418691 46.737226 75.811579 46.737226 74.944276 C 46.650496 74.52508 46.448125 73.267492 46.137342 71.164283 C 45.841013 69.046619 45.494092 66.625399 45.096579 63.915079 C 44.720748 61.204758 44.373827 58.610078 44.055816 56.131038 C 43.759487 53.630316 43.571572 51.772843 43.492069 50.558619 C 43.405339 48.665009 43.145148 47.074954 42.704269 45.795683 C 42.277845 44.494729 41.641823 43.844252 40.781748 43.844252 C 39.58198 43.757522 38.743587 44.350179 38.259343 45.607767 C 37.796782 46.843673 37.522136 47.812161 37.435406 48.506003 C 37.18967 50.399614 36.756019 53.066569 36.148907 56.514097 C 35.534568 59.932715 34.840726 63.719936 34.067381 67.854078 C 33.286809 71.995448 32.556829 76.136817 31.862987 80.27096 C 31.190828 84.390647 30.612626 88.148958 30.128382 91.553121 C 29.665821 94.957283 29.391175 97.566418 29.304444 99.373299 C 29.304444 99.792495 29.181577 100.002093 28.928613 100.002093 L 2.837261 100.002093 C 2.497568 100.002093 2.3747 99.734675 2.46143 99.214293 C 2.540933 98.8746 2.605981 98.520451 2.649346 98.137392 C 2.692711 97.739879 2.750531 97.371275 2.837261 97.038809 C 3.003494 96.258237 3.343188 94.603135 3.841887 92.059047 C 4.369496 89.51496 4.954925 86.660089 5.612629 83.487207 C 6.263106 80.292642 6.877446 77.213718 7.470102 74.250434 C 8.077214 71.294378 8.604823 68.988799 9.045702 67.355379 C 9.211935 66.220658 9.529946 64.327048 9.992507 61.681775 C 10.469524 59.014819 10.989905 55.935895 11.531969 52.445002 C 12.102944 48.961337 12.688373 45.383714 13.295485 41.733816 C 13.909824 38.07669 14.444661 34.60748 14.907222 31.333413 C 15.391466 28.052118 15.796207 25.341797 16.135901 23.202451 C 16.468367 21.034195 16.641827 19.747696 16.641827 19.3285 C 16.72133 18.988806 16.902018 18.822573 17.176664 18.822573 L 64.16278 18.822573 C 64.329013 18.822573 64.459108 18.988806 64.538611 19.3285 C 64.704844 20.188575 65.022855 21.973772 65.485416 24.684093 C 65.96966 27.394413 66.482814 30.429972 67.032106 33.79077 C 67.595853 37.129885 68.145144 40.331677 68.665526 43.403373 C 69.193135 46.44616 69.626786 48.831242 69.959252 50.558619 C 70.566364 53.99892 71.122883 57.446447 71.62881 60.893975 C 72.156419 64.334275 72.669573 67.781803 73.175499 71.22933 C 73.363415 71.90149 73.601923 73.216899 73.898251 75.16833 C 74.19458 77.098078 74.570411 79.295244 75.032972 81.752602 C 75.517216 84.188276 75.97255 86.660089 76.391746 89.160811 C 76.832625 91.661533 77.237366 93.815335 77.620425 95.622215 C 78.017938 97.429095 78.256447 98.621636 78.343177 99.214293 C 78.50941 99.734675 78.386542 100.002093 77.967346 100.002093 Z M 77.967346 100.002093 " stroke="#000000" stroke-width="9.681525" stroke-opacity="1" stroke-miterlimit="4"/><g fill="#ffffff" fill-opacity="1"><g transform="translate(278.489986, 215.471525)"><g><path d="M 42.140625 0 L 19.390625 0 C 19.203125 0 19.109375 -0.113281 19.109375 -0.34375 C 19.160156 -1.226562 19.253906 -2.425781 19.390625 -3.9375 C 19.535156 -5.445312 19.6875 -6.96875 19.84375 -8.5 C 20.007812 -10.039062 20.140625 -11.226562 20.234375 -12.0625 C 20.273438 -12.15625 20.363281 -12.222656 20.5 -12.265625 C 20.644531 -12.316406 20.765625 -12.34375 20.859375 -12.34375 C 20.953125 -12.300781 21.226562 -12.28125 21.6875 -12.28125 C 22.15625 -12.28125 22.632812 -12.28125 23.125 -12.28125 C 23.613281 -12.28125 23.925781 -12.28125 24.0625 -12.28125 C 24.0625 -12.28125 24.257812 -12.375 24.65625 -12.5625 C 25.050781 -12.75 25.25 -13.070312 25.25 -13.53125 C 25.207031 -13.769531 25.101562 -14.457031 24.9375 -15.59375 C 24.78125 -16.726562 24.59375 -18.03125 24.375 -19.5 C 24.164062 -20.96875 23.976562 -22.375 23.8125 -23.71875 C 23.65625 -25.070312 23.554688 -26.070312 23.515625 -26.71875 C 23.460938 -27.738281 23.320312 -28.597656 23.09375 -29.296875 C 22.863281 -29.992188 22.515625 -30.34375 22.046875 -30.34375 C 21.390625 -30.394531 20.929688 -30.082031 20.671875 -29.40625 C 20.421875 -28.726562 20.273438 -28.207031 20.234375 -27.84375 C 20.085938 -26.8125 19.851562 -25.363281 19.53125 -23.5 C 19.207031 -21.644531 18.835938 -19.597656 18.421875 -17.359375 C 18.003906 -15.128906 17.609375 -12.898438 17.234375 -10.671875 C 16.859375 -8.441406 16.539062 -6.40625 16.28125 -4.5625 C 16.03125 -2.726562 15.882812 -1.320312 15.84375 -0.34375 C 15.84375 -0.113281 15.769531 0 15.625 0 L 1.53125 0 C 1.34375 0 1.273438 -0.140625 1.328125 -0.421875 C 1.367188 -0.609375 1.398438 -0.804688 1.421875 -1.015625 C 1.453125 -1.222656 1.488281 -1.421875 1.53125 -1.609375 C 1.625 -2.023438 1.8125 -2.914062 2.09375 -4.28125 C 2.375 -5.65625 2.6875 -7.203125 3.03125 -8.921875 C 3.382812 -10.648438 3.722656 -12.316406 4.046875 -13.921875 C 4.367188 -15.523438 4.648438 -16.769531 4.890625 -17.65625 C 4.972656 -18.257812 5.144531 -19.28125 5.40625 -20.71875 C 5.664062 -22.164062 5.945312 -23.828125 6.25 -25.703125 C 6.550781 -27.585938 6.863281 -29.519531 7.1875 -31.5 C 7.507812 -33.476562 7.796875 -35.347656 8.046875 -37.109375 C 8.304688 -38.878906 8.53125 -40.34375 8.71875 -41.5 C 8.90625 -42.664062 9 -43.367188 9 -43.609375 C 9.039062 -43.785156 9.132812 -43.875 9.28125 -43.875 L 34.671875 -43.875 C 34.765625 -43.875 34.832031 -43.785156 34.875 -43.609375 C 34.96875 -43.140625 35.144531 -42.171875 35.40625 -40.703125 C 35.664062 -39.242188 35.945312 -37.601562 36.25 -35.78125 C 36.550781 -33.96875 36.835938 -32.234375 37.109375 -30.578125 C 37.390625 -28.929688 37.625 -27.644531 37.8125 -26.71875 C 38.132812 -24.851562 38.4375 -22.988281 38.71875 -21.125 C 39 -19.269531 39.28125 -17.414062 39.5625 -15.5625 C 39.65625 -15.1875 39.78125 -14.472656 39.9375 -13.421875 C 40.101562 -12.378906 40.3125 -11.195312 40.5625 -9.875 C 40.820312 -8.550781 41.066406 -7.210938 41.296875 -5.859375 C 41.535156 -4.515625 41.757812 -3.351562 41.96875 -2.375 C 42.175781 -1.394531 42.300781 -0.742188 42.34375 -0.421875 C 42.4375 -0.140625 42.367188 0 42.140625 0 Z M 42.140625 0 "/></g></g></g></svg>